<svg width="32" height="32" viewBox="0 0 32 32" fill="none" xmlns="http://www.w3.org/2000/svg">
<g id="calendar-empty">
<path id="union-1" fillRule="evenodd" clipRule="evenodd" d="M10.0003 1.33325C10.7367 1.33325 11.3337 1.93021 11.3337 2.66659V3.99992H20.667V2.66659C20.667 1.93021 21.2639 1.33325 22.0003 1.33325C22.7367 1.33325 23.3337 1.93021 23.3337 2.66659V4.03284C26.7025 4.36732 29.3337 7.20969 29.3337 10.6666V22.6666C29.3337 26.3485 26.3489 29.3333 22.667 29.3333H9.33366C5.65176 29.3333 2.66699 26.3485 2.66699 22.6666V10.6666C2.66699 7.20969 5.29811 4.36732 8.66699 4.03284V2.66659C8.66699 1.93021 9.26395 1.33325 10.0003 1.33325ZM5.56127 9.33325H26.4394C25.8903 7.77966 24.4086 6.66659 22.667 6.66659H9.33366C7.59203 6.66659 6.11038 7.77966 5.56127 9.33325ZM26.667 11.9999H5.33366V22.6666C5.33366 24.8757 7.12452 26.6666 9.33366 26.6666H22.667C24.8761 26.6666 26.667 24.8757 26.667 22.6666V11.9999Z" fill="#111825"/>
</g>
</svg>
