<svg width="32" height="32" viewBox="0 0 32 32" fill="none" xmlns="http://www.w3.org/2000/svg">
<g id="flag">
<path id="union-1" fillRule="evenodd" clipRule="evenodd" d="M8.00033 2.66675C8.73671 2.66675 9.33366 3.2637 9.33366 4.00008H26.667C27.2063 4.00008 27.6925 4.32494 27.8988 4.82317C28.1052 5.3214 27.9911 5.89489 27.6098 6.27622L21.8859 12.0001L27.6098 17.7239C27.9911 18.1053 28.1052 18.6788 27.8988 19.177C27.6925 19.6752 27.2063 20.0001 26.667 20.0001H9.33366V28.0001C9.33366 28.7365 8.73671 29.3334 8.00033 29.3334C7.26395 29.3334 6.66699 28.7365 6.66699 28.0001V4.00008C6.66699 3.2637 7.26395 2.66675 8.00033 2.66675ZM9.33366 17.3334H23.448L19.0575 12.9429C18.5368 12.4222 18.5368 11.578 19.0575 11.0573L23.448 6.66675H9.33366V17.3334Z" fill="#111825"/>
</g>
</svg>
