<svg width="32" height="32" viewBox="0 0 32 32" fill="none" xmlns="http://www.w3.org/2000/svg">
<g id="flash">
<path id="union-1" fillRule="evenodd" clipRule="evenodd" d="M17.6978 2.71735C18.2396 2.87131 18.6262 3.34918 18.6637 3.91123L19.2474 12.6666H24.6667C25.1661 12.6666 25.6237 12.9457 25.8522 13.3898C26.0808 13.8339 26.042 14.3685 25.7516 14.7749L15.7516 28.7749C15.4242 29.2333 14.8441 29.4364 14.3022 29.2825C13.7604 29.1285 13.3738 28.6507 13.3363 28.0886L12.7526 19.3333H7.33334C6.83389 19.3333 6.37632 19.0541 6.14778 18.61C5.91924 18.1659 5.95806 17.6314 6.24836 17.2249L16.2484 3.22494C16.5758 2.76656 17.1559 2.5634 17.6978 2.71735ZM9.92426 16.6666H14C14.702 16.6666 15.2837 17.2108 15.3304 17.9112L15.749 24.1907L22.0758 15.3333H18C17.2981 15.3333 16.7163 14.789 16.6696 14.0886L16.251 7.80915L9.92426 16.6666Z" fill="#111825"/>
</g>
</svg>
