<svg width="32" height="32" viewBox="0 0 32 32" fill="none" xmlns="http://www.w3.org/2000/svg">
<g id="globe">
<rect width="32" height="32" fill="white"/>
<path id="union-1" fillRule="evenodd" clipRule="evenodd" d="M5.41618 14.6667H10.7005C10.8715 11.2803 11.6899 8.14378 13.0059 5.75946C8.98514 6.9332 5.94692 10.4106 5.41618 14.6667ZM16.0003 6.00668C14.6224 7.89833 13.5763 10.9759 13.3706 14.6667H18.6301C18.4244 10.9759 17.3783 7.89833 16.0003 6.00668ZM18.6301 17.3334H13.3706C13.5763 21.0243 14.6224 24.1018 16.0003 25.9935C17.3783 24.1018 18.4244 21.0243 18.6301 17.3334ZM13.0059 26.2407C11.6899 23.8564 10.8715 20.7199 10.7005 17.3334H5.41618C5.94692 21.5895 8.98514 25.067 13.0059 26.2407ZM18.9948 26.2407C20.3107 23.8564 21.1291 20.7199 21.3001 17.3334H26.5845C26.0537 21.5895 23.0155 25.067 18.9948 26.2407ZM26.5845 14.6667H21.3001C21.1291 11.2803 20.3107 8.14378 18.9948 5.75946C23.0155 6.9332 26.0537 10.4106 26.5845 14.6667ZM2.66699 16.0001C2.66699 8.63628 8.63653 2.66675 16.0003 2.66675C23.3641 2.66675 29.3337 8.63628 29.3337 16.0001C29.3337 23.3639 23.3641 29.3334 16.0003 29.3334C8.63653 29.3334 2.66699 23.3639 2.66699 16.0001Z" fill="#111825"/>
</g>
</svg>
