<svg width="32" height="32" viewBox="0 0 32 32" fill="none" xmlns="http://www.w3.org/2000/svg">
<g id="graph-02">
<path id="union-1" fillRule="evenodd" clipRule="evenodd" d="M6.66699 5.33341C5.93061 5.33341 5.33366 5.93037 5.33366 6.66675V25.3334C5.33366 26.0698 5.93061 26.6667 6.66699 26.6667H25.3337C26.07 26.6667 26.667 26.0698 26.667 25.3334V6.66675C26.667 5.93037 26.07 5.33341 25.3337 5.33341H6.66699ZM2.66699 6.66675C2.66699 4.45761 4.45785 2.66675 6.66699 2.66675H25.3337C27.5428 2.66675 29.3337 4.45761 29.3337 6.66675V25.3334C29.3337 27.5426 27.5428 29.3334 25.3337 29.3334H6.66699C4.45785 29.3334 2.66699 27.5426 2.66699 25.3334V6.66675ZM23.6098 11.0573C24.1305 11.578 24.1305 12.4222 23.6098 12.9429L19.6098 16.9429C19.3598 17.1929 19.0206 17.3334 18.667 17.3334H13.8859L10.2765 20.9429C9.75577 21.4636 8.91155 21.4636 8.39085 20.9429C7.87015 20.4222 7.87015 19.578 8.39085 19.0573L12.3909 15.0573C12.6409 14.8072 12.98 14.6667 13.3337 14.6667H18.1147L21.7242 11.0573C22.2449 10.5366 23.0891 10.5366 23.6098 11.0573Z" fill="#111825"/>
</g>
</svg>
