<svg width="16" height="16" viewBox="0 0 16 16" fill="none" xmlns="http://www.w3.org/2000/svg">
<g id="list-dot">
<path id="union-1" fillRule="evenodd" clipRule="evenodd" d="M2 3.99992C2 3.63173 2.29848 3.33325 2.66667 3.33325H3.33333C3.70152 3.33325 4 3.63173 4 3.99992C4 4.36811 3.70152 4.66659 3.33333 4.66659H2.66667C2.29848 4.66659 2 4.36811 2 3.99992ZM5.33333 3.99992C5.33333 3.63173 5.63181 3.33325 6 3.33325H13.3333C13.7015 3.33325 14 3.63173 14 3.99992C14 4.36811 13.7015 4.66659 13.3333 4.66659H6C5.63181 4.66659 5.33333 4.36811 5.33333 3.99992ZM2 7.99992C2 7.63173 2.29848 7.33325 2.66667 7.33325H3.33333C3.70152 7.33325 4 7.63173 4 7.99992C4 8.36811 3.70152 8.66659 3.33333 8.66659H2.66667C2.29848 8.66659 2 8.36811 2 7.99992ZM5.33333 7.99992C5.33333 7.63173 5.63181 7.33325 6 7.33325H13.3333C13.7015 7.33325 14 7.63173 14 7.99992C14 8.36811 13.7015 8.66659 13.3333 8.66659H6C5.63181 8.66659 5.33333 8.36811 5.33333 7.99992ZM2 11.9999C2 11.6317 2.29848 11.3333 2.66667 11.3333H3.33333C3.70152 11.3333 4 11.6317 4 11.9999C4 12.3681 3.70152 12.6666 3.33333 12.6666H2.66667C2.29848 12.6666 2 12.3681 2 11.9999ZM5.33333 11.9999C5.33333 11.6317 5.63181 11.3333 6 11.3333H13.3333C13.7015 11.3333 14 11.6317 14 11.9999C14 12.3681 13.7015 12.6666 13.3333 12.6666H6C5.63181 12.6666 5.33333 12.3681 5.33333 11.9999Z" fill="white"/>
</g>
</svg>
