<svg width="32" height="32" viewBox="0 0 32 32" fill="none" xmlns="http://www.w3.org/2000/svg">
<g id="moon-1">
<path id="union-1" fillRule="evenodd" clipRule="evenodd" d="M16.0003 5.33341C10.1093 5.33341 5.33366 10.109 5.33366 16.0001C5.33366 16.5181 5.37058 17.0274 5.44193 17.5256C5.81812 17.4046 6.21185 17.3394 6.61048 17.3338C7.32691 17.3237 8.0329 17.5062 8.65467 17.8622C9.27644 18.2183 9.79117 18.7348 10.1451 19.3578C10.4989 19.9808 10.679 20.6874 10.6664 21.4038C10.6538 22.1202 10.449 22.82 10.0734 23.4302C9.8682 23.7635 9.61616 24.0634 9.32634 24.3214C11.1536 25.7888 13.4744 26.6667 16.0003 26.6667C21.8914 26.6667 26.667 21.8911 26.667 16.0001C26.667 10.109 21.8914 5.33341 16.0003 5.33341ZM6.47384 25.3287C8.89406 27.8 12.2681 29.3334 16.0003 29.3334C23.3641 29.3334 29.3337 23.3639 29.3337 16.0001C29.3337 8.63628 23.3641 2.66675 16.0003 2.66675C8.63653 2.66675 2.66699 8.63628 2.66699 16.0001C2.66699 19.6297 4.11728 22.9205 6.46997 25.3248L6.46978 25.3286C6.47114 25.3286 6.47248 25.3287 6.47384 25.3287ZM7.46649 22.4005C7.60012 22.3003 7.71427 22.1756 7.80246 22.0323C7.92765 21.829 7.99592 21.5957 8.00012 21.3569C8.00432 21.1181 7.94431 20.8825 7.82635 20.6749C7.70838 20.4672 7.53681 20.295 7.32955 20.1764C7.12229 20.0577 6.88696 19.9968 6.64816 20.0002C6.47692 20.0026 6.30841 20.038 6.15161 20.1037C6.49486 20.9266 6.93823 21.6972 7.46649 22.4005ZM13.3337 9.33342C12.5973 9.33342 12.0003 9.93037 12.0003 10.6667C12.0003 11.4031 12.5973 12.0001 13.3337 12.0001C14.07 12.0001 14.667 11.4031 14.667 10.6667C14.667 9.93037 14.07 9.33342 13.3337 9.33342ZM9.33366 10.6667C9.33366 8.45761 11.1245 6.66675 13.3337 6.66675C15.5428 6.66675 17.3337 8.45761 17.3337 10.6667C17.3337 12.8759 15.5428 14.6667 13.3337 14.6667C11.1245 14.6667 9.33366 12.8759 9.33366 10.6667ZM20.667 17.3334C19.5624 17.3334 18.667 18.2288 18.667 19.3334C18.667 20.438 19.5624 21.3334 20.667 21.3334C21.7716 21.3334 22.667 20.438 22.667 19.3334C22.667 18.2288 21.7716 17.3334 20.667 17.3334ZM16.0003 19.3334C16.0003 16.7561 18.0897 14.6667 20.667 14.6667C23.2443 14.6667 25.3337 16.7561 25.3337 19.3334C25.3337 21.9107 23.2443 24.0001 20.667 24.0001C18.0897 24.0001 16.0003 21.9107 16.0003 19.3334Z" fill="#111825"/>
</g>
</svg>
