<svg width="16" height="16" viewBox="0 0 16 16" fill="none" xmlns="http://www.w3.org/2000/svg">
<g id="more-3">
<g id="union-1">
<path d="M9.33268 8.00008C9.33268 8.73646 8.73573 9.33341 7.99935 9.33341C7.26297 9.33341 6.66602 8.73646 6.66602 8.00008C6.66602 7.2637 7.26297 6.66675 7.99935 6.66675C8.73573 6.66675 9.33268 7.2637 9.33268 8.00008Z" fill="white"/>
<path d="M13.3327 8.00008C13.3327 8.73646 12.7357 9.33341 11.9993 9.33341C11.263 9.33341 10.666 8.73646 10.666 8.00008C10.666 7.2637 11.263 6.66675 11.9993 6.66675C12.7357 6.66675 13.3327 7.2637 13.3327 8.00008Z" fill="white"/>
<path d="M5.33268 8.00008C5.33268 8.73646 4.73573 9.33341 3.99935 9.33341C3.26297 9.33341 2.66602 8.73646 2.66602 8.00008C2.66602 7.2637 3.26297 6.66675 3.99935 6.66675C4.73573 6.66675 5.33268 7.2637 5.33268 8.00008Z" fill="white"/>
<path d="M9.33268 4.00008C9.33268 4.73646 8.73573 5.33341 7.99935 5.33341C7.26297 5.33341 6.66602 4.73646 6.66602 4.00008C6.66602 3.2637 7.26297 2.66675 7.99935 2.66675C8.73573 2.66675 9.33268 3.2637 9.33268 4.00008Z" fill="white"/>
<path d="M13.3327 4.00008C13.3327 4.73646 12.7357 5.33341 11.9993 5.33341C11.263 5.33341 10.666 4.73646 10.666 4.00008C10.666 3.2637 11.263 2.66675 11.9993 2.66675C12.7357 2.66675 13.3327 3.2637 13.3327 4.00008Z" fill="white"/>
<path d="M5.33268 4.00008C5.33268 4.73646 4.73573 5.33341 3.99935 5.33341C3.26297 5.33341 2.66602 4.73646 2.66602 4.00008C2.66602 3.2637 3.26297 2.66675 3.99935 2.66675C4.73573 2.66675 5.33268 3.2637 5.33268 4.00008Z" fill="white"/>
<path d="M9.33268 12.0001C9.33268 12.7365 8.73573 13.3334 7.99935 13.3334C7.26297 13.3334 6.66602 12.7365 6.66602 12.0001C6.66602 11.2637 7.26297 10.6667 7.99935 10.6667C8.73573 10.6667 9.33268 11.2637 9.33268 12.0001Z" fill="white"/>
<path d="M13.3327 12.0001C13.3327 12.7365 12.7357 13.3334 11.9993 13.3334C11.263 13.3334 10.666 12.7365 10.666 12.0001C10.666 11.2637 11.263 10.6667 11.9993 10.6667C12.7357 10.6667 13.3327 11.2637 13.3327 12.0001Z" fill="white"/>
<path d="M5.33268 12.0001C5.33268 12.7365 4.73573 13.3334 3.99935 13.3334C3.26297 13.3334 2.66602 12.7365 2.66602 12.0001C2.66602 11.2637 3.26297 10.6667 3.99935 10.6667C4.73573 10.6667 5.33268 11.2637 5.33268 12.0001Z" fill="white"/>
</g>
</g>
</svg>
