<svg width="32" height="32" viewBox="0 0 32 32" fill="none" xmlns="http://www.w3.org/2000/svg">
<g id="People">
<path id="union-1" fillRule="evenodd" clipRule="evenodd" d="M6.91866 4.58737C8.29564 3.95957 9.84816 3.83044 11.3099 4.22212C12.0212 4.41271 12.4433 5.14382 12.2527 5.85511C12.0622 6.5664 11.331 6.98851 10.6198 6.79792C9.75597 6.56647 8.83858 6.64278 8.02491 7.01375C7.21124 7.38472 6.55199 8.02724 6.16024 8.83112C5.7685 9.63499 5.66865 10.5501 5.87784 11.4196C6.08702 12.289 6.59221 13.0586 7.30674 13.5963C7.69438 13.888 7.89299 14.3672 7.82531 14.8476C7.75764 15.328 7.43437 15.7338 6.98122 15.907C6.07543 16.2534 5.24332 16.7883 4.54443 17.4872C4.30897 17.7227 4.09217 17.9732 3.89493 18.2365C3.48396 18.7852 3.51076 19.2448 3.72704 19.6564C3.98243 20.1424 4.56927 20.6463 5.39934 20.9074C6.10178 21.1284 6.4921 21.877 6.27113 22.5794C6.05016 23.2818 5.30159 23.6722 4.59914 23.4512C3.23674 23.0226 2.01174 22.1248 1.36646 20.8969C0.682082 19.5945 0.719382 18.028 1.76061 16.6379C2.03345 16.2736 2.3333 15.9271 2.65881 15.6016C3.16069 15.0997 3.71228 14.659 4.30198 14.2841C3.82733 13.6134 3.48021 12.854 3.28516 12.0434C2.93115 10.572 3.10012 9.02332 3.76308 7.66292C4.42604 6.30251 5.54168 5.21517 6.91866 4.58737ZM23.9737 7.01375C23.16 6.64278 22.2426 6.56647 21.3789 6.79792C20.6676 6.98851 19.9365 6.5664 19.7459 5.85511C19.5553 5.14382 19.9774 4.41271 20.6887 4.22212C22.1505 3.83044 23.703 3.95957 25.08 4.58737C26.4569 5.21517 27.5726 6.30251 28.2355 7.66292C28.8985 9.02332 29.0675 10.572 28.7135 12.0434C28.5184 12.854 28.1713 13.6134 27.6966 14.2841C28.2864 14.659 28.8379 15.0997 29.3398 15.6016C29.6653 15.9271 29.9652 16.2736 30.238 16.6379C31.2792 18.028 31.3165 19.5945 30.6322 20.8969C29.9869 22.1248 28.7619 23.0226 27.3995 23.4512C26.697 23.6722 25.9485 23.2818 25.7275 22.5794C25.5065 21.877 25.8968 21.1284 26.5993 20.9074C27.4294 20.6463 28.0162 20.1424 28.2716 19.6564C28.4879 19.2448 28.5147 18.7852 28.1037 18.2365C27.9065 17.9732 27.6897 17.7227 27.4542 17.4872C26.7553 16.7883 25.9232 16.2534 25.0174 15.907C24.5643 15.7338 24.241 15.328 24.1733 14.8476C24.1056 14.3672 24.3042 13.888 24.6919 13.5963C25.4064 13.0586 25.9116 12.289 26.1208 11.4196C26.33 10.5501 26.2301 9.63499 25.8384 8.83112C25.4466 8.02724 24.7874 7.38472 23.9737 7.01375ZM15.9995 9.33333C13.8722 9.33333 12.1476 11.0579 12.1476 13.1852C12.1476 15.3125 13.8722 17.0371 15.9995 17.0371C18.1268 17.0371 19.8513 15.3125 19.8513 13.1852C19.8513 11.0579 18.1268 9.33333 15.9995 9.33333ZM20.324 18.0628C21.6699 16.8686 22.518 15.1259 22.518 13.1852C22.518 9.58511 19.5996 6.66667 15.9995 6.66667C12.3994 6.66667 9.48096 9.58511 9.48096 13.1852C9.48096 15.1259 10.3291 16.8686 11.675 18.0628C10.7646 18.5203 9.92432 19.1236 9.19033 19.8576C8.86483 20.1831 8.56498 20.5295 8.29214 20.8938C7.68063 21.7102 7.39268 22.6201 7.44338 23.5384C7.49331 24.4425 7.86521 25.252 8.39689 25.9055C9.44314 27.1915 11.1974 28.0001 13.0365 28.0001H18.9625C20.8016 28.0001 22.5559 27.1915 23.6021 25.9055C24.1338 25.252 24.5057 24.4425 24.5556 23.5384C24.6063 22.6201 24.3184 21.7102 23.7069 20.8938C23.434 20.5295 23.1342 20.1831 22.8087 19.8576C22.0747 19.1236 21.2344 18.5203 20.324 18.0628ZM15.9995 19.7038C14.1528 19.7038 12.3818 20.4374 11.076 21.7432C10.8405 21.9786 10.6237 22.2292 10.4265 22.4925C10.155 22.8548 10.093 23.156 10.106 23.3913C10.1198 23.6408 10.2253 23.9273 10.4654 24.2225C10.9629 24.834 11.9301 25.3334 13.0365 25.3334H18.9625C20.0689 25.3334 21.0361 24.834 21.5336 24.2225C21.7738 23.9273 21.8793 23.6408 21.893 23.3913C21.906 23.156 21.844 22.8548 21.5726 22.4925C21.3753 22.2292 21.1585 21.9786 20.9231 21.7432C19.6173 20.4374 17.8462 19.7038 15.9995 19.7038Z" fill="#111825"/>
</g>
</svg>
