<svg xmlns="http://www.w3.org/2000/svg" width="33" height="32" viewBox="0 0 33 32" fill="none">
    <path fillRule="evenodd" clipRule="evenodd" d="M23.6425 13.238C23.6425 7.76776 19.208 3.33325 13.7378 3.33325C8.26752 3.33325 3.83301 7.76776 3.83301 13.238C3.83301 18.7083 8.26752 23.1428 13.7378 23.1428C15.9916 23.1428 18.071 22.3888 19.7352 21.1211L26.8902 28.2761C27.4109 28.7968 28.2551 28.7968 28.7758 28.2761C29.2965 27.7554 29.2965 26.9111 28.7758 26.3904L21.6208 19.2355C22.8885 17.5713 23.6425 15.4918 23.6425 13.238ZM13.7378 5.99992C17.7353 5.99992 20.9759 9.24052 20.9759 13.238C20.9759 15.2371 20.1672 17.0448 18.8559 18.3561C17.5446 19.6674 15.7369 20.4761 13.7378 20.4761C9.74028 20.4761 6.49967 17.2355 6.49967 13.238C6.49967 9.24052 9.74028 5.99992 13.7378 5.99992Z" fill="red" fill-opacity="0.5"/>
</svg>