<svg width="32" height="32" viewBox="0 0 32 32" fill="none" xmlns="http://www.w3.org/2000/svg">
<g id="sun">
<path id="union-1" fillRule="evenodd" clipRule="evenodd" d="M16.0003 2.66675C16.7367 2.66675 17.3337 3.2637 17.3337 4.00008V6.66675C17.3337 7.40313 16.7367 8.00008 16.0003 8.00008C15.2639 8.00008 14.667 7.40313 14.667 6.66675V4.00008C14.667 3.2637 15.2639 2.66675 16.0003 2.66675ZM25.4284 6.57199C25.9491 7.09269 25.9491 7.93691 25.4284 8.45761L23.5428 10.3432C23.0221 10.8639 22.1779 10.8639 21.6572 10.3432C21.1365 9.82253 21.1365 8.97831 21.6572 8.45761L23.5428 6.57199C24.0635 6.05129 24.9077 6.05129 25.4284 6.57199ZM6.57223 6.57199C7.09293 6.05129 7.93715 6.05129 8.45785 6.57199L10.3435 8.45761C10.8642 8.97831 10.8642 9.82253 10.3435 10.3432C9.82277 10.8639 8.97855 10.8639 8.45785 10.3432L6.57223 8.45761C6.05154 7.93691 6.05154 7.09269 6.57223 6.57199ZM16.0003 12.6667C14.1594 12.6667 12.667 14.1591 12.667 16.0001C12.667 17.841 14.1594 19.3334 16.0003 19.3334C17.8413 19.3334 19.3337 17.841 19.3337 16.0001C19.3337 14.1591 17.8413 12.6667 16.0003 12.6667ZM10.0003 16.0001C10.0003 12.6864 12.6866 10.0001 16.0003 10.0001C19.314 10.0001 22.0003 12.6864 22.0003 16.0001C22.0003 19.3138 19.314 22.0001 16.0003 22.0001C12.6866 22.0001 10.0003 19.3138 10.0003 16.0001ZM2.66699 16.0001C2.66699 15.2637 3.26395 14.6667 4.00033 14.6667H6.66699C7.40337 14.6667 8.00033 15.2637 8.00033 16.0001C8.00033 16.7365 7.40337 17.3334 6.66699 17.3334H4.00033C3.26395 17.3334 2.66699 16.7365 2.66699 16.0001ZM24.0003 16.0001C24.0003 15.2637 24.5973 14.6667 25.3337 14.6667H28.0003C28.7367 14.6667 29.3337 15.2637 29.3337 16.0001C29.3337 16.7365 28.7367 17.3334 28.0003 17.3334H25.3337C24.5973 17.3334 24.0003 16.7365 24.0003 16.0001ZM10.3435 21.6569C10.8642 22.1776 10.8642 23.0219 10.3435 23.5426L8.45785 25.4282C7.93715 25.9489 7.09293 25.9489 6.57224 25.4282C6.05154 24.9075 6.05154 24.0633 6.57224 23.5426L8.45785 21.6569C8.97855 21.1362 9.82277 21.1362 10.3435 21.6569ZM21.6572 21.6569C22.1779 21.1362 23.0221 21.1362 23.5428 21.6569L25.4284 23.5426C25.9491 24.0633 25.9491 24.9075 25.4284 25.4282C24.9077 25.9489 24.0635 25.9489 23.5428 25.4282L21.6572 23.5426C21.1365 23.0219 21.1365 22.1776 21.6572 21.6569ZM16.0003 24.0001C16.7367 24.0001 17.3337 24.597 17.3337 25.3334V28.0001C17.3337 28.7365 16.7367 29.3334 16.0003 29.3334C15.2639 29.3334 14.667 28.7365 14.667 28.0001V25.3334C14.667 24.597 15.2639 24.0001 16.0003 24.0001Z" fill="#111825"/>
</g>
</svg>
