<svg width="36" height="36" viewBox="0 0 36 36" fill="none" xmlns="http://www.w3.org/2000/svg">
<g id="call-phone">
<path id="union-1" fillRule="evenodd" clipRule="evenodd" d="M13.3611 6.82988C12.5394 6.00818 11.2992 5.77165 10.2327 6.23325C6.45192 7.86971 4.923 11.7448 6.8401 14.7964C8.31024 17.1365 10.377 19.8842 13.2464 22.7536C16.1158 25.623 18.8635 27.6898 21.2036 29.1599C24.2552 31.077 28.1303 29.5481 29.7668 25.7673C30.2284 24.7009 29.9918 23.4607 29.1701 22.639L28.6532 22.122C27.456 20.9248 25.6241 20.6346 24.1155 21.4032L22.1955 22.3813C20.4788 23.2558 18.3944 22.9256 17.0321 21.5633L14.4367 18.9679C13.0745 17.6057 12.7442 15.5212 13.6187 13.8046L14.5969 11.8846C15.3654 10.3759 15.0752 8.544 13.878 7.34679L13.3611 6.82988ZM15.4824 4.70856L15.9993 5.22547C18.1155 7.34164 18.6284 10.5797 17.27 13.2463L16.2919 15.1663C16.0073 15.725 16.1147 16.4033 16.5581 16.8466L19.1534 19.442C19.5967 19.8853 20.2751 19.9927 20.8337 19.7082L22.7537 18.7301C25.4203 17.3716 28.6584 17.8846 30.7745 20.0007L31.2915 20.5176C32.9834 22.2095 33.4704 24.7631 32.5199 26.959C30.3656 31.9363 24.6371 34.8598 19.6077 31.7002C17.0899 30.1184 14.1635 27.9133 11.1251 24.8749C8.08669 21.8365 5.88162 18.9101 4.29981 16.3923C1.14017 11.3629 4.06372 5.63444 9.04103 3.48008C11.2369 2.52964 13.7905 3.01665 15.4824 4.70856Z" fill="white"/>
</g>
</svg>
