<svg width="223" height="150" viewBox="0 0 223 150" fill="none" xmlns="http://www.w3.org/2000/svg">
<g id="logo 1">
<g id="Group">
<g id="Group_2">
<g id="Group_3" opacity="0.9375">
<path id="Vector" d="M120.436 120.52C109.944 120.52 99.8914 117.08 90.1576 113.76C79.985 110.28 69.4134 106.72 58.2036 106.84C19.9465 107.32 9.21541 94.88 6.90164 84.36C4.62776 73.92 9.49466 60.64 20.6247 46.96C31.1564 34.08 45.5576 22.92 60.2381 16.4C70.4906 11.84 80.3839 9.79997 88.8013 10.6C98.3755 11.48 105.995 15.84 111.5 23.56C121.035 36.96 143.454 34 165.156 31.16C187.935 28.16 209.437 25.36 214.064 41.72C220.487 64.2 203.732 74.56 182.509 87.64C173.892 92.96 164.159 98.96 155.183 106.4C143.893 115.84 132.643 120.44 120.755 120.52C120.636 120.52 120.516 120.52 120.436 120.52ZM58.8419 106.36C69.9321 106.36 80.2643 109.88 90.2773 113.32C100.091 116.68 110.224 120.12 120.755 120.04C132.524 119.96 143.694 115.36 154.864 106C163.839 98.56 173.613 92.52 182.23 87.2C203.293 74.2 219.889 63.96 213.586 41.8C209.038 25.84 187.735 28.64 165.196 31.6C143.374 34.48 120.835 37.44 111.101 23.8C105.716 16.24 98.1761 11.92 88.7614 11.04C80.4238 10.24 70.6102 12.24 60.4376 16.8C46.0762 23.2 31.316 34.6 20.9838 47.24C9.93348 60.8 5.10647 73.92 7.38035 84.24C9.65423 94.6 20.3056 106.84 58.1637 106.36C58.4031 106.36 58.6025 106.36 58.8419 106.36Z" fill="#1CA4E9"/>
</g>
<g id="Group_4" opacity="0.875">
<path id="Vector_2" d="M118.282 120.68C107.71 120.68 97.6575 117.64 87.9237 114.72C78.3096 111.84 68.3763 108.84 57.8446 108.68C21.5423 108.12 11.0106 95.44 8.57718 84.92C6.22351 74.76 10.2926 61.96 19.9865 48.92C29.1219 36.64 42.2466 25.56 55.9697 18.52C78.7484 6.87997 98.8144 8.23997 110.982 22.24C121.274 34.12 143.534 32.56 165.076 31.04C188.493 29.4 210.634 27.84 213.905 44.4C216.059 55.2 213.466 64.12 205.767 72.44C198.825 79.92 188.334 86.24 177.203 92.96C169.544 97.56 161.645 102.36 153.946 107.96C142.337 116.44 130.848 120.6 118.841 120.72C118.601 120.68 118.442 120.68 118.282 120.68ZM84.5727 11.08C75.9559 11.08 66.3418 13.68 56.1292 18.88C42.4859 25.88 29.4012 36.88 20.3455 49.16C10.7314 62.12 6.70222 74.76 9.016 84.76C11.4096 95.12 21.8215 107.6 57.8446 108.16C68.4561 108.32 78.3894 111.32 88.0434 114.24C97.7373 117.16 107.75 120.2 118.282 120.2C118.442 120.2 118.601 120.2 118.761 120.2C130.689 120.08 142.098 115.96 153.627 107.52C161.326 101.88 169.265 97.12 176.924 92.48C188.014 85.8 198.506 79.48 205.408 72.04C213.027 63.84 215.58 55.08 213.426 44.4C210.235 28.28 188.294 29.8 165.076 31.44C143.414 32.96 121.035 34.52 110.583 22.48C104 14.88 95.0246 11.08 84.5727 11.08Z" fill="#1CA4E9"/>
</g>
<g id="Group_5" opacity="0.8125">
<path id="Vector_3" d="M115.888 120.88C105.197 120.88 95.1042 118.24 85.3305 115.64C76.4345 113.32 67.2193 110.88 57.5254 110.44C23.098 108.84 12.8057 95.9599 10.2525 85.3999C7.85898 75.5599 11.1302 63.2399 19.4677 50.7599C27.2867 39.0399 39.0949 28.0799 51.7808 20.7199C62.2726 14.5999 72.9638 11.1599 82.6178 10.7999C93.5883 10.3599 102.923 13.7599 110.423 20.8799C121.274 31.1999 143.135 30.9599 164.278 30.7199C188.692 30.3999 211.83 30.1199 213.665 46.9999C216.498 72.3199 194.876 84.7599 169.823 99.1999C164.158 102.44 158.334 105.8 152.59 109.44C140.622 117 128.814 120.76 116.567 120.88C116.327 120.88 116.128 120.88 115.888 120.88ZM57.5653 109.96C67.2991 110.4 76.5542 112.84 85.4901 115.16C95.4234 117.76 105.716 120.48 116.606 120.36C128.774 120.24 140.462 116.52 152.39 109C158.135 105.36 163.999 102 169.664 98.7599C194.557 84.4399 216.059 72.0399 213.266 47.0399C211.471 30.5999 188.573 30.8399 164.318 31.1199C143.095 31.3599 121.114 31.5999 110.144 21.1599C102.764 14.1199 93.5085 10.7999 82.6976 11.2399C73.1234 11.5999 62.5119 15.0399 52.0601 21.1199C39.4141 28.4799 27.7255 39.3599 19.9066 51.0399C11.6488 63.3999 8.37759 75.5599 10.7711 85.2799C13.2445 95.6799 23.4171 108.4 57.5653 109.96Z" fill="#1CA4E9"/>
</g>
<g id="Group_6" opacity="0.75">
<path id="Vector_4" d="M113.136 121.08C102.205 121.08 91.9526 118.76 82.0193 116.56C74.0408 114.76 65.8229 112.92 57.2061 112.24C24.6536 109.68 14.6007 96.52 11.9279 85.92C9.49443 76.32 12.0476 64.52 19.1485 52.6C25.9302 41.24 36.1427 30.76 47.9111 23.04C58.3231 16.2 69.2536 12.08 79.4662 11.08C91.035 9.95997 101.248 12.8 109.864 19.52C121.034 28.28 142.177 29.2 162.602 30.12C188.613 31.28 213.186 32.36 213.506 49.72C214.144 78 187.176 92.16 158.653 107.16C156.22 108.44 153.786 109.72 151.353 111C138.826 117.68 126.619 121 114.013 121.12C113.694 121.08 113.415 121.08 113.136 121.08ZM84.2932 11.28C82.6975 11.28 81.1018 11.36 79.4662 11.52C69.3334 12.52 58.4826 16.64 48.1504 23.4C36.422 31.12 26.2892 41.56 19.5474 52.84C12.5263 64.64 9.97314 76.36 12.3667 85.8C15.0395 96.24 24.9728 109.2 57.246 111.76C65.9027 112.44 74.1604 114.28 82.139 116.08C92.3116 118.36 102.763 120.72 113.973 120.6C126.46 120.48 138.627 117.16 151.074 110.52C153.507 109.24 155.94 107.92 158.374 106.68C186.777 91.76 213.625 77.68 212.987 49.68C212.668 32.76 188.333 31.68 162.523 30.56C142.018 29.64 120.795 28.72 109.505 19.88C102.245 14.16 93.7876 11.28 84.2932 11.28Z" fill="#1CA4E9"/>
</g>
<g id="Group_7" opacity="0.6875">
<path id="Vector_5" d="M109.665 121.4C98.3354 121.4 87.8835 119.4 77.1125 117.36C70.5701 116.12 63.8283 114.84 56.847 114.04C26.1297 110.52 16.3161 97.08 13.5236 86.44C11.0104 76.96 12.9252 65.84 19.0288 54.28C24.7733 43.4 33.829 33.08 44.5202 25.24C66.6606 9.00003 90.8755 6.36003 109.226 18.08C120.476 25.28 140.462 27.2 159.81 29.04C188.014 31.72 214.623 34.28 213.306 52.32C212.349 66.16 205.607 78.04 192.682 88.6C180.594 98.52 164.318 106.24 149.996 112.48C134.638 119.16 121.673 121.4 109.665 121.4ZM56.9268 113.56C63.908 114.36 70.6898 115.64 77.2322 116.88C99.213 121.08 119.997 125 149.797 112.04C164.079 105.8 180.315 98.12 192.362 88.24C205.168 77.72 211.83 65.96 212.787 52.28C214.064 34.72 187.695 32.2 159.73 29.52C140.342 27.68 120.276 25.76 108.987 18.52C90.7957 6.88003 66.7803 9.56003 44.7994 25.64C22.0606 42.28 9.09551 67.8 13.9624 86.32C16.7948 96.84 26.4887 110.08 56.9268 113.56Z" fill="#1CA4E9"/>
</g>
<g id="Group_8" opacity="0.625">
<path id="Vector_6" d="M104.758 121.72C91.7534 121.72 79.9851 119.72 67.9375 117.68C64.2673 117.04 60.4377 116.4 56.608 115.84C27.606 111.4 18.0716 97.6799 15.1595 86.9599C12.6462 77.6799 14.0425 66.9199 19.1886 55.8399C24.0555 45.3599 32.074 35.2399 41.8078 27.3999C63.1105 10.1199 88.1232 6.15992 108.748 16.7999C119.559 22.3999 137.869 24.9999 155.582 27.4799C178.999 30.7999 203.214 34.1999 210.833 44.6399C212.987 47.5999 213.785 51.1199 213.107 54.9999C210.793 68.9599 203.373 81.2799 191.046 91.6799C180.475 100.56 166.233 108.08 148.72 114.04C131.766 119.76 117.644 121.72 104.758 121.72ZM56.6479 115.36C60.5174 115.96 64.3072 116.6 68.0173 117.2C91.9928 121.24 114.652 125.08 148.561 113.52C165.994 107.6 180.195 100.08 190.727 91.2399C202.974 80.9199 210.354 68.6799 212.628 54.8799C213.266 51.0799 212.548 47.7999 210.434 44.8799C202.934 34.6399 178.799 31.1999 155.502 27.9199C137.75 25.3999 119.399 22.8399 108.508 17.1999C88.0833 6.63992 63.27 10.5999 42.087 27.7199C21.5822 44.3199 10.6915 68.6399 15.5983 86.8399C18.4706 97.4399 27.9251 110.96 56.6479 115.36Z" fill="#1CA4E9"/>
</g>
<g id="Group_9" opacity="0.5625">
<path id="Vector_7" d="M97.8168 122.28C83.8942 122.28 70.8094 120.48 56.2087 117.64C28.8823 112.32 19.6671 98.24 16.6751 87.3599C11.7683 69.1199 20.9835 45.76 39.6134 29.2C48.9483 20.92 59.7991 15.16 71.0089 12.48C83.615 9.47995 96.1413 10.48 108.149 15.4C118.082 19.48 133.202 22.2 149.238 25.04C176.046 29.84 203.732 34.8 211.391 46.84C213.426 50.04 213.944 53.68 212.867 57.6C209.117 71.96 201.179 84.44 189.331 94.64C178.121 104.28 163.6 111.48 147.363 115.48C128.016 120.32 112.417 122.28 97.8168 122.28ZM85.2107 11.28C80.5433 11.28 75.8758 11.84 71.1286 12.96C59.9985 15.6 49.2275 21.32 39.9325 29.56C21.4223 46 12.247 69.16 17.1538 87.24C20.066 97.96 29.2413 111.88 56.2885 117.16C68.6951 119.6 82.2985 121.84 97.6173 121.84C97.6572 121.84 97.6572 121.84 97.6971 121.84C112.816 121.84 128.574 119.68 147.284 115.08C163.44 111.08 177.921 103.92 189.051 94.32C200.82 84.16 208.718 71.8 212.428 57.52C213.426 53.72 212.947 50.2 210.992 47.12C203.453 35.24 175.847 30.32 149.159 25.52C133.122 22.64 117.963 19.9199 107.989 15.84C100.529 12.7999 92.91 11.28 85.2107 11.28Z" fill="#1CA4E9"/>
</g>
<g id="Group_10" opacity="0.5">
<path id="Vector_8" d="M88.2826 123.2C77.352 123.2 66.9799 122.08 55.9296 119.44C30.159 113.24 21.1831 98.72 18.1912 87.68C13.2445 69.44 21.0236 47.08 38.0178 30.76C46.8341 22.28 57.4456 16.16 68.7751 13.08C81.4609 9.59996 94.5457 9.95996 107.631 14.08C115.809 16.68 127.338 19.04 139.585 21.56C169.823 27.8 204.091 34.84 211.99 49.04C213.905 52.52 214.144 56.32 212.708 60.32C207.402 75.08 198.745 88 187.735 97.72C175.927 108.12 161.924 114.64 146.127 117.08C122.63 120.68 104.798 123.2 88.2826 123.2ZM56.0094 118.96C83.7348 125.64 105.915 122.72 146.007 116.6C161.725 114.2 175.648 107.72 187.376 97.36C198.346 87.68 206.923 74.84 212.229 60.16C213.625 56.28 213.426 52.64 211.551 49.28C203.772 35.24 169.624 28.2 139.465 22C127.218 19.48 115.689 17.12 107.471 14.52C94.466 10.4 81.4609 10.08 68.8549 13.52C57.6051 16.6 47.0735 22.68 38.2971 31.08C21.4624 47.28 13.7232 69.44 18.63 87.52C21.5821 98.48 30.4781 112.8 56.0094 118.96Z" fill="#1CA4E9"/>
</g>
<g id="Group_11" opacity="0.4375">
<path id="Vector_9" d="M80.4235 124.6C72.1657 124.6 64.0675 123.68 55.6103 121.24C40.4511 116.8 29.2412 108.44 23.1775 97C17.7521 86.8 16.5952 74.24 19.8664 61.64C24.0552 45.56 34.8661 31 49.5466 21.6C61.2351 14.12 80.6629 6.56002 107.072 12.72C111.58 13.76 117.085 14.96 122.909 16.2C155.103 23.04 203.732 33.36 212.548 51.08C214.423 54.88 214.423 58.88 212.508 63C205.168 78.88 196.272 91.56 186.099 100.8C174.091 111.68 160.169 117.68 144.81 118.64C132.164 119.44 121.114 120.8 111.38 122C100.091 123.36 90.1174 124.6 80.4235 124.6ZM88.043 10.92C71.2482 10.92 58.4028 16.48 49.7859 22C35.2251 31.32 24.4541 45.8 20.3053 61.76C17.0341 74.24 18.1909 86.68 23.5765 96.76C29.6003 108.08 40.6904 116.4 55.7299 120.76C74.0806 126.12 90.5164 124.08 111.34 121.48C121.074 120.28 132.124 118.88 144.77 118.08C160.009 117.12 173.812 111.16 185.74 100.36C195.873 91.2 204.729 78.52 212.069 62.72C213.944 58.76 213.944 54.88 212.109 51.2C203.413 33.68 154.903 23.4 122.79 16.6C116.965 15.36 111.46 14.2 106.912 13.12C100.21 11.6 93.8673 10.92 88.043 10.92Z" fill="#1CA4E9"/>
</g>
<g id="Group_12" opacity="0.375">
<path id="Vector_10" d="M75.4369 126.28C68.7349 126.28 62.1128 125.4 55.2512 123.04C40.9297 118.04 30.2385 109.08 24.3344 97.1999C18.9489 86.3999 17.7521 73.4399 20.9834 60.7199C24.8929 45.1999 35.0655 31.1199 48.9482 21.9999C64.9052 11.5599 84.8117 7.87992 106.553 11.3599C141.459 16.9599 203.133 31.9199 212.987 52.5999C215.021 56.8799 214.782 61.2399 212.309 65.5999C205.008 78.4799 195.953 93.1199 184.424 103.8C172.137 115.16 158.733 120.52 143.494 120.08C126.539 119.64 112.776 121.76 100.649 123.64C91.753 125 83.5351 126.28 75.4369 126.28ZM55.4108 122.6C70.4503 127.84 84.4128 125.68 100.569 123.2C112.737 121.32 126.539 119.2 143.534 119.64C158.653 120.04 171.937 114.76 184.144 103.48C195.633 92.8399 204.649 78.2799 211.91 65.3999C214.303 61.1999 214.543 56.9599 212.548 52.8399C202.774 32.3199 141.26 17.4399 106.433 11.8399C84.8117 8.39992 65.0249 12.0399 49.1476 22.3999C35.3847 31.3999 25.2519 45.4399 21.3823 60.8399C18.2308 73.4399 19.3877 86.2799 24.7333 96.9999C30.5975 108.76 41.209 117.64 55.4108 122.6Z" fill="#1CA4E9"/>
</g>
<g id="Group_13" opacity="0.3125">
<path id="Vector_11" d="M72.2456 128.16C66.5011 128.16 60.8363 127.28 54.9322 124.84C41.4086 119.24 31.1961 109.72 25.3718 97.32C19.9862 85.8 18.7895 72.4 21.941 59.52C25.651 44.4 35.0657 31.2 48.4297 22.32C63.6687 12.16 83.5751 7.91999 105.955 10.04C122.75 11.64 147.403 17.52 167.31 24.68C192.362 33.72 208.718 44.12 213.346 54C215.62 58.84 215.181 63.68 212.069 68.28C210.913 69.96 209.796 71.68 208.679 73.36C199.703 86.8 191.206 99.48 180.754 108.72C169.065 119.08 156.419 123.28 142.177 121.64C123.228 119.44 108.428 122.4 95.3834 125.04C87.2054 126.64 79.6657 128.16 72.2456 128.16ZM94.9845 9.99999C77.1524 9.99999 61.315 14.32 48.709 22.72C35.4247 31.56 26.0898 44.68 22.4197 59.64C19.2682 72.4 20.465 85.68 25.8106 97.08C31.5551 109.4 41.6878 118.84 55.1317 124.36C68.4957 129.88 80.9422 127.4 95.3036 124.52C108.388 121.88 123.228 118.92 142.257 121.12C156.579 122.76 168.706 118.72 180.474 108.32C190.886 99.12 199.344 86.48 208.32 73.08C209.437 71.4 210.593 69.68 211.71 68C214.742 63.52 215.141 58.88 212.947 54.2C202.695 32.4 137.829 13.52 105.915 10.52C102.205 10.16 98.5748 9.99999 94.9845 9.99999Z" fill="#1CA4E9"/>
</g>
<g id="Group_14" opacity="0.25">
<path id="Vector_12" d="M70.0117 130.12C64.9054 130.12 59.7991 129.16 54.6131 126.64C41.8474 120.4 32.0338 110.28 26.3292 97.3199C20.9038 85.0399 19.6671 71.12 22.8585 58.12C26.4888 43.52 35.2253 31.24 48.1505 22.52C62.9905 12.56 82.2587 7.87995 105.396 8.67995C121.553 9.23995 145.927 15.12 167.549 23.64C181.99 29.36 207.242 41.04 213.825 55.2799C216.378 60.7999 215.74 66.0399 211.91 70.9199C208.32 75.4799 204.889 80.1999 201.578 84.7599C193.12 96.3599 185.102 107.36 175.647 114.76C164.956 123.12 153.946 125.76 140.941 123.12C120.835 119.04 105.516 122.92 92.0324 126.32C84.2135 128.32 77.0727 130.12 70.0117 130.12ZM100.41 9.07995C79.5859 9.07995 62.1129 13.72 48.4297 22.92C35.5843 31.56 26.9276 43.76 23.3372 58.24C20.1458 71.12 21.3825 84.9199 26.768 97.1199C32.4727 109.96 42.1666 120 54.8524 126.2C67.0995 132.16 78.5886 129.28 91.9127 125.88C105.476 122.44 120.835 118.56 141.021 122.68C153.906 125.28 164.797 122.64 175.368 114.4C184.823 107 192.761 96.0799 201.219 84.4799C204.53 79.9199 207.96 75.2 211.551 70.6399C215.261 65.9199 215.899 60.84 213.426 55.4799C208.639 45.2 191.884 33.76 167.39 24.08C145.848 15.56 121.513 9.71995 105.396 9.15995C103.721 9.11995 102.045 9.07995 100.41 9.07995Z" fill="#1CA4E9"/>
</g>
<g id="Group_15" opacity="0.1875">
<path id="Vector_13" d="M68.2963 132.16C63.6288 132.16 59.0013 131.12 54.254 128.4C42.366 121.56 32.712 110.52 27.0871 97.28C21.5022 84.0799 20.2256 69.64 23.5766 56.56C27.0871 42.76 35.5444 31.04 47.9909 22.64C62.3124 12.96 81.4608 7.83996 104.878 7.39996C120.955 7.07996 145.09 12.92 167.789 22.6C192.283 33.04 209.277 45.44 214.343 56.56C217.176 62.8 216.298 68.56 211.71 73.64C206.125 79.88 201.099 86.4399 196.272 92.7999C182.669 110.68 170.661 126.48 151.353 126.48C147.723 126.48 143.813 125.92 139.624 124.72C118.721 118.68 103.162 123.52 89.3995 127.8C81.8997 130.04 75.0381 132.16 68.2963 132.16ZM54.4934 128C65.8229 134.52 76.6737 131.16 89.2 127.28C103.003 123 118.641 118.16 139.704 124.2C165.954 131.8 179.836 113.56 195.873 92.4799C200.7 86.1199 205.726 79.56 211.311 73.28C215.779 68.32 216.617 62.76 213.865 56.72C208.838 45.68 191.964 33.4 167.589 23C144.93 13.32 120.875 7.51996 104.878 7.83996C81.5805 8.27996 62.5118 13.4 48.2701 23C35.9034 31.32 27.5658 42.96 24.0553 56.64C20.7442 69.6 21.9809 83.96 27.5658 97.0799C33.1508 110.24 42.7251 121.2 54.4934 128Z" fill="#1CA4E9"/>
</g>
<g id="Group_16" opacity="0.125">
<path id="Vector_14" d="M66.9 134.24C62.5517 134.24 58.2832 133.12 53.9349 130.16C42.6852 122.52 33.3902 110.8 27.7653 97.1599C21.9011 82.9999 20.6245 67.9599 24.1351 54.7999C27.6855 41.6399 35.704 30.7599 47.9111 22.5199C61.8337 13.1599 80.7827 7.55994 104.279 5.95994C120.316 4.83994 144.731 10.7599 167.988 21.3199C192.083 32.2799 209.596 45.8399 214.822 57.5599C217.974 64.5999 216.857 70.8799 211.431 76.1599C204.011 83.4799 197.868 91.3999 191.924 98.9999C184.264 108.84 177.084 118.12 168.746 123.56C159.531 129.6 149.837 130.4 138.228 126.08C116.686 118.04 100.968 123.88 87.0458 129.04C79.9449 131.8 73.3227 134.24 66.9 134.24ZM108.349 6.35994C106.952 6.35994 105.636 6.39994 104.359 6.47994C80.9422 8.07994 62.073 13.6399 48.2303 22.9599C36.1029 31.1199 28.1244 41.9199 24.6138 54.9599C21.1032 67.9999 22.3798 82.9199 28.2041 96.9999C33.829 110.56 43.0442 122.2 54.2142 129.8C64.7059 136.96 75.0381 133.12 86.966 128.68C100.928 123.48 116.766 117.6 138.467 125.72C149.917 130 159.491 129.2 168.547 123.24C176.804 117.84 183.985 108.6 191.604 98.7999C197.548 91.1599 203.692 83.2399 211.152 75.8799C216.378 70.7199 217.495 64.6399 214.423 57.7999C209.237 46.1999 191.804 32.7199 167.828 21.7999C146.486 12.1199 124.226 6.35994 108.349 6.35994Z" fill="#1CA4E9"/>
</g>
<g id="Group_17" opacity="0.0625">
<path id="Vector_15" d="M65.5833 136.4C61.5143 136.4 57.5649 135.16 53.6155 131.96C43.0839 123.44 33.8288 110.72 28.2438 97.08C23.8157 86.32 19.5871 69.96 24.4939 53.12C29.8794 34.52 48.0306 11 103.761 4.64002C120.156 2.76002 144.252 8.56002 168.227 20.12C192.243 31.72 209.875 46.08 215.42 58.6C218.931 66.52 217.534 73.32 211.271 78.84C202.136 86.92 194.796 96.24 188.293 104.48C176.804 119.12 167.11 131.4 152.31 131.4C147.762 131.4 142.696 130.24 136.951 127.6C114.891 117.52 98.2953 124.76 84.9712 130.56C78.0697 133.64 71.7268 136.4 65.5833 136.4ZM53.8948 131.64C63.5488 139.44 73.4023 135.16 84.8116 130.2C98.2155 124.36 114.931 117.08 137.191 127.24C161.246 138.24 173.014 123.24 187.934 104.24C194.437 96 201.777 86.64 210.952 78.52C217.056 73.16 218.412 66.52 214.981 58.8C209.516 46.4 191.963 32.12 168.028 20.56C144.132 9.04002 120.117 3.24002 103.801 5.12002C48.3497 11.48 30.3182 34.84 24.9327 53.28C20.0658 70 24.2944 86.24 28.6826 96.92C34.2277 110.52 43.4429 123.16 53.8948 131.64Z" fill="#1CA4E9"/>
</g>
<g id="Group_18">
<path id="Vector_16" d="M58.4827 104.8C-73.7615 110.08 76.7136 -35.04 111.819 25.04C129.412 55.12 202.176 7.11999 214.024 39.12C225.832 71.12 186.458 76.44 156.339 104.68C118.641 139.92 92.6707 103.44 58.4827 104.8Z" stroke="#1CA4E9" stroke-width="1.1763" stroke-miterlimit="10"/>
<path id="Vector_17" d="M154.584 106.72C156.539 104.92 159.052 102.4 161.007 100.72C162.802 99.1999 164.717 97.8399 166.592 96.5599C177.802 88.8399 189.012 81.9199 197.549 75.3599C199.503 73.8399 201.538 71.7599 203.253 70.2799C213.067 61.5599 215.74 51.7599 209.875 37.8799C197.429 8.39993 126.3 52.5199 109.226 24.6799C93.1894 -1.48007 54.0148 15.0799 29.042 39.0799C24.3746 43.5599 19.9864 49.0799 16.5556 53.9199C-1.71521 79.7999 1.59588 107.92 59.2408 105.68C76.1952 105 93.1097 114.36 108.548 118.24C120.316 121.2 132.364 121.44 145.648 113.36C148.521 111.6 151.473 109.48 154.465 106.92C154.465 106.84 154.544 106.76 154.584 106.72Z" stroke="#28A4EA" stroke-width="1.1763" stroke-miterlimit="10"/>
<path id="Vector_18" d="M152.909 108.76C154.704 107.08 157.656 103.84 159.451 102.28C161.286 100.64 163.361 99.28 165.315 98C177.123 90.36 188.573 82.64 197.03 75.36C198.785 73.84 200.82 71.16 202.336 69.68C211.99 60.36 212.069 49.96 205.647 36.6C192.761 9.67997 123.029 49.92 106.553 24.28C90.5963 -0.520029 52.5786 16.96 28.8823 40.56C24.5739 44.84 20.3453 50.76 17.2337 55.36C-0.199413 80.8 4.54781 108.6 59.9188 106.52C75.7562 105.88 93.7877 114.68 108.189 118.24C119.758 121.08 131.526 121.44 144.252 114.48C147.005 112.96 149.837 111.16 152.709 108.92C152.789 108.84 152.829 108.8 152.909 108.76Z" stroke="#33A3EC" stroke-width="1.1763" stroke-miterlimit="10"/>
<path id="Vector_19" d="M151.193 110.8C152.869 109.24 156.18 105.32 157.855 103.84C159.77 102.12 161.924 100.72 164.039 99.44C176.445 91.88 188.094 83.4 196.551 75.36C198.107 73.88 200.142 70.48 201.498 69.08C210.992 59.12 208.559 48.24 201.538 35.28C188.333 10.92 119.838 47.28 103.96 23.84C88.0032 0.320028 51.2621 18.8 28.7626 42C24.8531 46.04 20.7841 52.44 17.9517 56.72C1.31647 81.84 7.53972 109.24 60.597 107.32C75.2775 106.72 94.4658 115 107.87 118.2C119.199 120.92 130.728 121.44 142.935 115.6C145.568 114.32 148.281 112.8 151.034 110.92C151.074 110.88 151.113 110.84 151.193 110.8Z" stroke="#3FA3ED" stroke-width="1.1763" stroke-miterlimit="10"/>
<path id="Vector_20" d="M149.478 112.84C151.034 111.4 154.744 106.8 156.26 105.36C158.215 103.52 160.528 102.12 162.762 100.88C175.847 93.4 189.53 85.72 196.033 75.36C197.668 74.24 199.384 69.84 200.581 68.48C209.995 57.84 207.243 44.92 197.349 34C188.493 10 116.527 44.68 101.328 23.44C85.3706 1.20004 49.9459 20.68 28.6432 43.52C25.0928 47.32 21.2232 54.2 18.67 58.2C2.83265 82.88 10.492 110.04 61.3153 108.12C74.8788 107.6 95.1842 115.28 107.591 118.16C118.721 120.76 130.01 121.4 141.619 116.68C144.172 115.64 146.725 114.44 149.319 112.92C149.358 112.88 149.438 112.84 149.478 112.84Z" stroke="#4BA3EF" stroke-width="1.1763" stroke-miterlimit="10"/>
<path id="Vector_21" d="M147.763 114.88C149.199 113.56 153.268 108.24 154.624 106.92C156.659 104.96 159.092 103.56 161.446 102.32C175.209 94.88 189.53 86.84 195.514 75.3599C196.99 74.3199 198.386 68.92 199.703 67.88C206.644 54.88 204.211 42.72 193.2 32.72C185.062 10.72 113.216 42.08 98.6947 23.04C82.6977 1.99995 48.6294 22.52 28.5235 45C25.3321 48.56 21.662 55.92 19.3482 59.64C4.34855 84 13.484 110.76 62.0333 108.96C74.4799 108.52 95.9022 115.6 107.272 118.16C118.202 120.64 129.252 121.4 140.263 117.8C142.696 117 145.17 116.12 147.603 114.92C147.683 114.92 147.723 114.88 147.763 114.88Z" stroke="#56A2F0" stroke-width="1.1763" stroke-miterlimit="10"/>
<path id="Vector_22" d="M146.087 116.88C147.363 115.68 151.831 109.64 153.068 108.44C155.182 106.4 157.696 105 160.209 103.72C174.65 96.32 189.61 87.92 195.035 75.32C196.391 74.4 197.668 68.2 198.825 67.24C205.128 53.28 201.218 40.48 189.011 31.4C181.631 11.4 109.745 39.52 96.0613 22.6C79.9846 2.72003 47.3923 24.28 28.4034 46.44C25.571 49.72 22.1003 57.6 20.0658 61C5.82412 85.04 16.4755 111.4 62.7111 109.72C74.0007 109.32 96.5799 115.84 106.952 118.08C117.683 120.4 128.494 121.36 138.946 118.84C141.26 118.28 143.613 117.68 145.927 116.84C145.967 116.92 146.007 116.92 146.087 116.88Z" stroke="#62A2F1" stroke-width="1.1763" stroke-miterlimit="10"/>
<path id="Vector_23" d="M144.372 118.92C145.529 117.84 150.356 111.08 151.473 110C153.627 107.84 156.1 105.92 158.932 105.16C175.209 100.72 189.65 88.9999 194.557 75.3599C195.793 74.5199 196.91 67.5599 197.987 66.6799C203.652 51.7599 198.227 38.3199 184.903 30.1599C178.24 12.1599 103.362 39.1599 93.4686 22.2399C74.1206 6.75993 46.1958 26.1199 28.3239 47.9599C25.8505 50.9599 22.5793 59.3599 20.824 62.4799C7.30042 86.2399 19.4677 112.2 63.4294 110.64C73.602 110.28 97.2983 116.2 106.633 118.16C117.165 120.36 127.736 121.44 137.59 120.04C139.824 119.72 142.018 119.44 144.212 118.92C144.252 118.96 144.332 118.96 144.372 118.92Z" stroke="#6EA2F3" stroke-width="1.1763" stroke-miterlimit="10"/>
<path id="Vector_24" d="M142.656 120.96C143.693 120 148.88 112.52 149.877 111.52C152.111 109.24 154.664 107.24 157.656 106.6C174.73 102.68 189.69 90.12 194.038 75.36C195.115 74.6 196.152 66.84 197.07 66.08C202.096 50.2 195.155 36.12 180.714 28.88C174.81 12.88 99.6121 36.88 90.8357 21.84C71.009 8.08002 44.9591 27.84 28.2042 49.48C26.0899 52.2 23.0581 61.16 21.5421 63.96C8.77649 87.4 22.4198 112.88 64.1475 111.48C73.2031 111.16 98.0563 116.48 106.354 118.16C116.686 120.24 127.098 120.52 136.313 121.2C138.428 121.36 140.502 121.12 142.537 121C142.576 120.96 142.616 120.96 142.656 120.96Z" stroke="#7AA2F4" stroke-width="1.1763" stroke-miterlimit="10"/>
<path id="Vector_25" d="M140.941 123C141.858 122.16 147.403 113.96 148.241 113.08C150.515 110.68 153.188 108.6 156.299 108.04C174.171 104.6 189.65 91.2399 193.439 75.3599C194.397 74.7199 195.274 66.1599 196.112 65.4799C200.5 48.6399 192.043 33.9199 176.485 27.5599C171.299 13.5599 95.822 34.5599 88.1228 21.3999C67.8573 9.35993 39.4537 26.9199 27.9646 50.9199C25.7705 52.9999 23.4169 62.8799 22.1403 65.3199C10.1326 88.5199 25.3317 113.56 64.7856 112.24C72.6843 111.96 98.6943 116.68 105.995 118.08C116.127 120.04 126.34 121.48 134.917 122.24C136.951 122.4 138.906 122.72 140.781 122.92C140.861 123 140.901 123 140.941 123Z" stroke="#85A1F5" stroke-width="1.1763" stroke-miterlimit="10"/>
<path id="Vector_26" d="M139.265 125.04C140.023 124.32 145.967 115.4 146.685 114.64C149.039 112.16 151.792 109.96 155.063 109.48C173.772 106.52 189.729 92.36 193.001 75.36C193.799 74.8 194.596 65.48 195.275 64.88C199.064 47.08 189.091 31.72 172.376 26.28C167.948 14.28 92.152 32.28 85.5697 21C64.8255 10.72 37.7384 28.52 27.9248 52.44C26.01 54.2 23.9755 64.68 22.9382 66.8C11.6486 89.8 28.4035 114.32 65.5835 113.12C72.3653 112.92 99.4923 116.96 105.755 118.16C115.689 120 125.702 121.64 133.64 123.44C135.595 123.88 137.39 124.48 139.146 125C139.185 125 139.225 125.04 139.265 125.04Z" stroke="#91A1F7" stroke-width="1.1763" stroke-miterlimit="10"/>
<path id="Vector_27" d="M137.55 127.08C138.188 126.48 144.491 116.8 145.09 116.2C147.523 113.6 150.356 111.36 153.786 110.96C173.294 108.52 189.77 93.4799 192.482 75.3999C193.161 74.9199 193.799 64.7999 194.397 64.3599C197.549 45.5999 186.06 29.5999 168.188 25.0799C164.478 15.0799 88.4024 30.0799 82.9371 20.6799C61.7142 12.0399 35.9834 30.0799 27.8054 53.9199C26.2097 55.3999 24.8135 66.6399 23.6566 68.2399C17.6727 92.6799 31.3958 115.04 66.2619 113.96C71.9267 113.8 100.211 117.24 105.437 118.16C115.17 119.88 124.984 121.8 132.324 124.56C134.159 125.24 135.875 126.16 137.47 127.04C137.47 127.04 137.51 127.08 137.55 127.08Z" stroke="#9DA1F8" stroke-width="1.1763" stroke-miterlimit="10"/>
<path id="Vector_28" d="M135.835 129.12C136.353 128.64 143.015 118.24 143.494 117.72C145.968 115 148.92 112.68 152.51 112.36C172.815 110.4 189.81 94.56 192.004 75.36C192.562 75 193.041 64.08 193.52 63.72C196.033 44 183.028 27.4 164.039 23.76C161.087 15.76 84.6924 27.76 80.3042 20.24C58.6425 13.36 34.2282 31.6 27.6858 55.44C26.4092 56.6 25.2922 68.4 24.3747 69.68C19.5477 93.96 34.3478 115.76 66.98 114.8C71.4879 114.68 100.969 117.44 105.157 118.16C114.692 119.76 124.306 121.96 131.008 125.68C132.763 126.64 134.319 127.84 135.755 129.04C135.755 129.08 135.795 129.08 135.835 129.12Z" stroke="#A8A0FA" stroke-width="1.1763" stroke-miterlimit="10"/>
<path id="Vector_29" d="M134.119 131.16C134.518 130.8 141.539 119.68 141.858 119.28C144.411 116.44 147.443 114.04 151.193 113.8C172.296 112.32 189.849 95.68 191.445 75.4C191.844 75.12 192.243 63.44 192.602 63.16C194.477 42.48 179.956 25.24 159.85 22.52C157.616 16.52 80.942 25.52 77.6708 19.88C55.5304 14.68 32.4724 33.16 27.5656 56.92C26.6082 57.8 25.7705 70.16 25.0524 71.12C21.462 95.2 37.3393 116.48 67.6578 115.64C71.0486 115.56 101.646 117.64 104.798 118.16C114.133 119.64 123.507 122.12 129.651 126.8C131.287 128.04 132.723 129.52 134.039 131.04C134.079 131.08 134.119 131.12 134.119 131.16Z" stroke="#B4A0FB" stroke-width="1.1763" stroke-miterlimit="10"/>
<path id="Vector_30" d="M132.443 133.2C132.683 132.96 140.063 121.08 140.302 120.84C142.935 117.88 146.047 115.44 149.956 115.24C171.857 114.24 189.929 96.7599 191.006 75.3999C191.285 75.1999 191.524 62.7199 191.764 62.5599C193.04 40.8799 176.964 23.0399 155.741 21.1999C154.265 17.1999 77.2719 23.1999 75.0778 19.4399C52.4587 15.9999 30.7172 34.7199 27.446 58.3999C26.8077 58.9999 26.2492 71.9199 25.7705 72.5599C23.3769 96.4799 40.3313 117.2 68.3758 116.48C70.6497 116.44 102.404 117.84 104.519 118.16C113.654 119.52 122.75 122.32 128.335 127.96C129.85 129.48 131.167 131.24 132.364 133.08C132.364 133.12 132.404 133.16 132.443 133.2Z" stroke="#C0A0FC" stroke-width="1.1763" stroke-miterlimit="10"/>
<path id="Vector_31" d="M130.728 135.24C130.848 135.12 138.587 122.52 138.707 122.4C141.42 119.36 144.611 116.8 148.68 116.72C171.419 116.24 189.969 97.92 190.488 75.44C190.607 75.36 190.767 62.08 190.887 62C191.485 39.36 173.932 20.84 151.552 19.96C150.794 17.96 73.5224 20.96 72.4453 19.08C49.3873 17.36 28.9623 36.28 27.3267 59.92C27.0076 60.2 26.7283 73.68 26.4889 74C25.2922 97.76 43.2838 117.92 69.0943 117.32C70.2113 117.28 103.163 118 104.2 118.16C113.136 119.4 121.912 122.48 126.979 129.08C128.375 130.88 129.572 132.88 130.609 135.12C130.689 135.12 130.689 135.2 130.728 135.24Z" stroke="#CB9FFE" stroke-width="1.1763" stroke-miterlimit="10"/>
<path id="Vector_32" d="M129.013 137.28L137.111 123.96C139.305 120.36 143.175 118.16 147.403 118.16C170.94 118.16 190.009 99.0399 190.009 75.4399V61.3999C190.009 37.7999 170.94 18.6799 147.403 18.6799H69.7724C46.2357 18.6799 27.167 37.7999 27.167 61.3999V75.4399C27.167 99.0399 46.2357 118.16 69.7724 118.16H103.881C112.737 118.16 121.074 122.64 125.662 130.2C126.899 132.28 128.016 134.56 128.933 137.12C128.973 137.16 128.973 137.2 129.013 137.28Z" stroke="#D79FFF" stroke-width="1.1763" stroke-miterlimit="10"/>
</g>
<g id="Group_19" opacity="0.03">
<path id="Vector_33" d="M189.61 60C189.052 55.48 187.815 44.08 182.03 37C176.246 29.96 177.164 31.6 177.164 31.6C177.164 31.6 174.291 31.04 172.815 31.04C171.379 31.04 169.584 30.84 168.108 31.04C166.672 31.24 145.888 35.56 130.529 35.56C124.226 35.56 109.585 29.24 107.232 28.32C104.878 27.4 98.0165 27.24 92.9501 25.08C87.8837 22.92 75.9558 19.84 70.5703 19.48C63.3497 19 59.3605 21.28 48.1905 29.64C36.9807 37.96 33.0313 43.6 32.1138 45.04C31.1963 46.48 27.7655 53.2 27.4065 59.36C27.0474 65.52 25.6113 85.08 31.9143 94.68C38.2174 104.28 38.2174 104.28 38.2174 104.28C38.2174 104.28 46.515 104.64 53.576 104.84C60.6371 105.04 68.7353 104.12 75.5968 106.64C82.1392 109.04 89.9183 116.56 110.982 118.6C112.657 119.12 114.811 120.04 117.404 121.4C120.396 123 124.346 127.16 125.901 130.2C127.457 133.2 129.053 136.84 129.053 136.84C129.053 136.84 136.154 124.12 138.029 122.08C139.904 120.04 140.821 120.16 142.377 118.4C143.933 116.68 151.792 109.68 153.108 108.12C154.465 106.56 160.808 100.48 163.042 98.52C163.48 98.12 163.76 97.84 163.919 97.6C164.079 97.48 164.278 97.32 164.438 97.2C170.023 93.04 189.171 80.56 189.171 80.56C189.171 80.56 190.129 64.52 189.61 60Z" fill="white"/>
</g>
<g id="Group_20">
<g id="Group_21">
<path id="Vector_34" d="M46.9535 56.7599L52.1396 56.7999C54.8523 56.7999 57.2458 57.7999 59.3202 59.7599C61.3947 61.7199 62.392 64.1199 62.392 66.9999C62.392 69.8799 61.3947 72.3199 59.3601 74.3599C57.3655 76.3999 54.8922 77.4399 52.0199 77.4399H46.8737C45.7168 77.4399 45.0387 77.1999 44.7195 76.7199C44.4802 76.3199 44.4004 75.7199 44.4004 74.9199V59.2399C44.4004 58.7999 44.4004 58.4799 44.4403 58.2399C44.4802 58.0399 44.56 57.7999 44.7195 57.5199C45.0387 56.9999 45.7567 56.7599 46.9535 56.7599ZM55.8097 70.9199C56.8868 69.9199 57.4453 68.6399 57.4453 67.1199C57.4453 65.5999 56.9267 64.3199 55.8496 63.3199C54.7725 62.2799 53.5358 61.7999 52.1396 61.7999H49.4269V72.4399H52.1396C53.4959 72.4399 54.7326 71.9199 55.8097 70.9199Z" fill="#401A4F"/>
</g>
<g id="Group_22">
<path id="Vector_35" d="M78.6284 57.5599C78.8279 57.2399 79.1072 57.0399 79.4263 56.9199C79.7853 56.7999 80.2241 56.7599 80.7428 56.7599C81.2614 56.7599 81.7002 56.7999 82.0193 56.9199C82.3385 56.9999 82.5778 57.1199 82.7374 57.2399C82.897 57.3599 83.0166 57.5599 83.0964 57.8399C83.2161 58.1599 83.256 58.6399 83.256 59.3199V67.8399C83.256 70.3199 82.498 72.5599 80.9422 74.5999C80.1843 75.5599 79.2268 76.3199 78.0301 76.9199C76.8333 77.5199 75.5567 77.7999 74.1206 77.7999C72.6844 77.7999 71.368 77.4799 70.2111 76.8799C69.0542 76.2799 68.0968 75.4799 67.3388 74.5199C65.8229 72.5199 65.0649 70.2799 65.0649 67.7599V59.2799C65.0649 58.8399 65.0649 58.4799 65.1048 58.2799C65.1447 58.0799 65.2245 57.7999 65.3841 57.5199C65.5436 57.2399 65.783 57.0399 66.142 56.9199C66.5011 56.7999 66.9798 56.7599 67.5782 56.7599C68.1766 56.7599 68.6553 56.7999 69.0143 56.9199C69.3733 57.0399 69.6127 57.2399 69.7324 57.5199C69.9717 57.9599 70.0515 58.5599 70.0515 59.2799V67.7199C70.0515 68.8799 70.3308 69.9599 70.8893 70.9999C71.1685 71.5199 71.6073 71.9599 72.1658 72.2799C72.7243 72.5999 73.4025 72.7599 74.1605 72.7599C75.5168 72.7599 76.554 72.2399 77.2322 71.2399C77.9104 70.2399 78.2295 69.0399 78.2295 67.7199V59.0799C78.3492 58.3599 78.4689 57.8399 78.6284 57.5599Z" fill="#401A4F"/>
</g>
<g id="Group_23">
<path id="Vector_36" d="M101.687 66.3599C102.804 67.6799 103.362 69.1599 103.362 70.7999C103.322 72.6799 102.684 74.2399 101.447 75.5199C100.21 76.7999 98.6946 77.4399 96.8994 77.4399H89.5192C88.2028 77.4399 87.4448 77.0799 87.2055 76.3599C87.0858 76.0399 87.0459 75.5599 87.0459 74.8799V59.2399C87.0459 58.7999 87.0459 58.4799 87.0858 58.2399C87.1257 58.0399 87.2055 57.7999 87.365 57.5199C87.6443 56.9999 88.3624 56.7599 89.5591 56.7599H96.66C98.3754 56.7599 99.8116 57.3599 100.968 58.5599C102.205 59.7999 102.804 61.2399 102.804 62.9599C102.764 64.1999 102.405 65.3199 101.687 66.3599ZM98.3754 70.5199C98.3754 70.0799 98.3355 69.7199 98.2158 69.4399C98.0962 69.1599 97.9366 68.9999 97.6972 68.8799C97.3382 68.7199 96.7797 68.6399 96.1414 68.6399C95.5031 68.6399 94.9446 68.5199 94.6255 68.2399C94.3064 67.9599 94.1069 67.4399 94.1069 66.5999C94.1069 65.7999 94.2665 65.2399 94.6255 64.9999C94.9845 64.7199 95.543 64.5999 96.3409 64.5999C97.0989 64.5999 97.5377 64.3999 97.6972 63.9999C97.7371 63.7999 97.777 63.4399 97.777 62.9999C97.777 62.5199 97.6175 62.1999 97.2983 61.9999C96.9792 61.7999 96.5404 61.7199 95.9021 61.7199H91.9527V72.3999H96.5802C97.777 72.4399 98.3754 71.7999 98.3754 70.5199Z" fill="#401A4F"/>
</g>
<g id="Group_24">
<path id="Vector_37" d="M121.234 66.3599C122.351 67.6799 122.909 69.1599 122.909 70.7999C122.869 72.6799 122.231 74.2399 120.995 75.5199C119.758 76.7999 118.242 77.4399 116.447 77.4399H109.067C107.75 77.4399 106.992 77.0799 106.753 76.3599C106.633 76.0399 106.593 75.5599 106.593 74.8799V59.2399C106.593 58.7999 106.593 58.4799 106.633 58.2399C106.673 58.0399 106.753 57.7999 106.912 57.5199C107.192 56.9999 107.91 56.7599 109.106 56.7599H116.207C117.923 56.7599 119.359 57.3599 120.516 58.5599C121.752 59.7999 122.351 61.2399 122.351 62.9599C122.271 64.1999 121.952 65.3199 121.234 66.3599ZM117.923 70.5199C117.923 70.0799 117.883 69.7199 117.763 69.4399C117.644 69.1599 117.484 68.9999 117.245 68.8799C116.886 68.7199 116.327 68.6399 115.689 68.6399C115.051 68.6399 114.492 68.5199 114.173 68.2399C113.854 67.9599 113.654 67.4399 113.654 66.5999C113.654 65.7999 113.814 65.2399 114.173 64.9999C114.532 64.7199 115.09 64.5999 115.888 64.5999C116.646 64.5999 117.085 64.3999 117.245 63.9999C117.284 63.7999 117.324 63.4399 117.324 62.9999C117.324 62.5199 117.165 62.1999 116.846 61.9999C116.527 61.7999 116.088 61.7199 115.449 61.7199H111.5V72.3999H116.128C117.324 72.4399 117.923 71.7999 117.923 70.5199Z" fill="#401A4F"/>
</g>
<g id="Group_25">
<path id="Vector_38" d="M126.061 59.2799C126.061 58.8399 126.061 58.5199 126.101 58.3199C126.141 58.1199 126.221 57.8399 126.38 57.5599C126.659 57.0399 127.377 56.7999 128.574 56.7999C129.891 56.7999 130.649 57.1599 130.888 57.8399C130.968 58.1599 131.048 58.6399 131.048 59.3199V74.9999C131.048 75.4399 131.048 75.7999 131.008 75.9999C130.968 76.1999 130.888 76.4399 130.728 76.7199C130.449 77.2399 129.731 77.4799 128.534 77.4799C127.218 77.4799 126.46 77.1199 126.221 76.3999C126.101 76.0799 126.061 75.5999 126.061 74.9599V59.2799Z" fill="#401A4F"/>
</g>
<g id="Group_26">
<path id="Vector_39" d="M148.162 57.6399C148.321 57.3199 148.6 57.0799 148.959 56.9599C149.318 56.8399 149.757 56.7999 150.276 56.7999C150.795 56.7999 151.233 56.8399 151.552 56.9599C151.872 57.0399 152.111 57.1599 152.271 57.2799C152.43 57.3999 152.55 57.5999 152.63 57.8799C152.749 58.1999 152.789 58.6399 152.789 59.3199V74.9599C152.789 75.3999 152.789 75.7599 152.749 75.9599C152.709 76.1599 152.63 76.3999 152.47 76.6799C152.191 77.1999 151.473 77.4399 150.276 77.4399C149.558 77.4399 149.039 77.3999 148.76 77.2799C148.481 77.1599 148.241 76.9999 148.042 76.7599C143.813 71.1199 141.061 67.4399 139.704 65.7199V74.9999C139.704 75.4399 139.704 75.7999 139.664 75.9999C139.625 76.1999 139.545 76.4399 139.385 76.7199C139.106 77.2399 138.388 77.4799 137.191 77.4799C136.034 77.4799 135.316 77.2399 135.037 76.7199C134.877 76.4399 134.798 76.1999 134.758 75.9599C134.718 75.7199 134.718 75.3999 134.718 74.9599V59.1999C134.718 58.4799 134.798 57.9599 134.997 57.6399C135.157 57.3199 135.436 57.0799 135.795 56.9599C136.154 56.8399 136.593 56.7999 137.191 56.7999C137.75 56.7999 138.188 56.8399 138.508 56.9599C138.827 57.0799 139.066 57.1999 139.186 57.3199C139.266 57.3599 139.465 57.6399 139.824 58.0399C143.773 63.4399 146.406 66.9999 147.763 68.7199V59.1999C147.882 58.4799 148.002 57.9599 148.162 57.6399Z" fill="#401A4F"/>
</g>
<g id="Group_27">
<path id="Vector_40" d="M167.031 64.9999H171.977C172.975 65.0399 173.613 65.3199 173.812 65.7999C174.012 66.1599 174.092 66.6799 174.092 67.3599V73.5599C174.092 74.1599 173.812 74.7199 173.294 75.2799C171.738 76.9199 169.344 77.7199 166.193 77.7199C163.4 77.7199 160.967 76.6799 158.932 74.5599C156.858 72.4399 155.821 69.8799 155.821 66.9199C155.821 63.9199 156.858 61.4399 158.972 59.4399C161.087 57.4399 163.56 56.4399 166.392 56.4399C168.586 56.4399 170.701 57.1599 172.655 58.6399C173.174 58.9999 173.413 59.4399 173.413 59.8799C173.413 60.3599 173.214 60.8799 172.775 61.4799C172.057 62.4799 171.379 62.9599 170.781 62.9599C170.422 62.9599 169.863 62.7199 169.065 62.1999C168.267 61.6799 167.35 61.4399 166.273 61.4399C164.837 61.4399 163.6 61.9599 162.483 62.9599C161.366 63.9599 160.807 65.2799 160.807 66.9199C160.807 68.5599 161.366 69.9199 162.483 71.0799C163.6 72.1999 164.876 72.7999 166.313 72.7999C167.35 72.7999 168.267 72.6399 169.105 72.2799V69.1999H166.871C166.273 69.1999 165.874 69.1199 165.634 68.9599C165.395 68.7999 165.235 68.5999 165.156 68.2799C165.076 67.9999 165.036 67.5999 165.036 67.0799C165.036 66.5999 165.076 66.1999 165.156 65.8799C165.235 65.5599 165.395 65.3599 165.634 65.2399C166.033 65.0799 166.472 64.9999 167.031 64.9999Z" fill="#401A4F"/>
</g>
<g id="Group_28">
<path id="Vector_41" d="M44.7596 100C44.2809 99.4 44.0415 98.84 44.0415 98.36C44.0415 97.88 44.4404 97.24 45.2383 96.44C45.717 96 46.1957 95.76 46.7143 95.76C47.2329 95.76 47.951 96.24 48.9084 97.16C49.1877 97.48 49.5467 97.8 50.0254 98.08C50.5041 98.36 50.9429 98.52 51.3818 98.52C53.137 98.52 54.0147 97.8 54.0147 96.36C54.0147 95.92 53.7753 95.56 53.2966 95.28C52.8179 95 52.2195 94.76 51.5014 94.64C50.7834 94.52 50.0254 94.28 49.1877 94C48.3499 93.72 47.592 93.36 46.8739 92.96C46.1558 92.56 45.5574 91.96 45.0787 91.08C44.6 90.24 44.3606 89.2 44.3606 88C44.3606 86.36 44.959 84.92 46.1957 83.68C47.4324 82.44 49.1079 81.84 51.2222 81.84C52.3392 81.84 53.3764 82 54.2939 82.28C55.2115 82.56 55.8497 82.88 56.2088 83.16L56.9268 83.68C57.5252 84.24 57.8045 84.68 57.8045 85.08C57.8045 85.48 57.5651 85.96 57.1263 86.64C56.488 87.6 55.8497 88.04 55.1716 88.04C54.7726 88.04 54.2939 87.84 53.6955 87.48C53.6556 87.44 53.536 87.36 53.3764 87.2C53.2168 87.04 53.0572 86.92 52.9376 86.84C52.5386 86.6 52.0599 86.48 51.4216 86.48C50.8233 86.48 50.3047 86.64 49.9057 86.92C49.5068 87.2 49.3073 87.6 49.3073 88.12C49.3073 88.64 49.5467 89.04 50.0254 89.36C50.5041 89.68 51.1025 89.88 51.8206 90C52.5386 90.12 53.2966 90.28 54.1343 90.52C54.9721 90.76 55.7699 91.04 56.4481 91.4C57.1662 91.72 57.7646 92.32 58.2433 93.16C58.722 94 58.9614 95.04 58.9614 96.24C58.9614 97.44 58.722 98.52 58.2433 99.48C57.7646 100.4 57.1263 101.12 56.3284 101.64C54.8125 102.64 53.1769 103.12 51.4615 103.12C50.5839 103.12 49.7462 103 48.9483 102.8C48.1504 102.6 47.5122 102.32 47.0335 102C46.0361 101.4 45.358 100.8 44.959 100.24L44.7596 100Z" fill="#401A4F"/>
</g>
<g id="Group_29">
<path id="Vector_42" d="M62.5116 82.2H78.1495C78.7479 82.2 79.1867 82.28 79.466 82.4C79.7452 82.56 79.9447 82.7599 80.0245 83.0799C80.1042 83.3999 80.184 83.7599 80.184 84.2799C80.184 84.7599 80.1441 85.16 80.0245 85.44C79.9447 85.72 79.7851 85.92 79.5457 86.04C79.2266 86.2 78.7479 86.2799 78.1096 86.2799H72.7241V100.44C72.7241 100.88 72.7241 101.2 72.6842 101.4C72.6443 101.6 72.5645 101.84 72.4448 102.12C72.2853 102.4 72.0459 102.6 71.6869 102.68C71.3279 102.8 70.8491 102.84 70.2906 102.84C69.6923 102.84 69.2534 102.8 68.8944 102.68C68.5354 102.56 68.296 102.36 68.1763 102.12C68.0168 101.84 67.937 101.6 67.937 101.4C67.8971 101.2 67.8971 100.84 67.8971 100.44V86.2799H62.5116C61.9132 86.2799 61.4744 86.1999 61.1951 86.0799C60.9159 85.9199 60.7164 85.72 60.6366 85.4C60.5568 85.12 60.4771 84.72 60.4771 84.2C60.4771 83.68 60.5169 83.32 60.6366 83.04C60.7563 82.76 60.876 82.56 61.1153 82.44C61.4345 82.28 61.9132 82.2 62.5116 82.2Z" fill="#401A4F"/>
</g>
<g id="Group_30">
<path id="Vector_43" d="M95.9019 83C96.1013 82.68 96.3806 82.4799 96.6997 82.3599C97.0588 82.2399 97.4976 82.2 98.0162 82.2C98.5348 82.2 98.9736 82.2399 99.2928 82.3599C99.6119 82.4399 99.8513 82.5599 100.011 82.6799C100.17 82.7999 100.29 82.9999 100.37 83.28C100.49 83.5999 100.529 84.0799 100.529 84.7599V93.28C100.529 95.7599 99.7715 98 98.2157 100.04C97.4577 101 96.5003 101.76 95.3035 102.36C94.1067 102.96 92.8302 103.24 91.394 103.24C89.9579 103.24 88.6414 102.92 87.4845 102.32C86.3276 101.72 85.3702 100.92 84.6123 99.9599C83.0963 97.9599 82.3384 95.72 82.3384 93.2V84.72C82.3384 84.28 82.3384 83.92 82.3783 83.72C82.4182 83.52 82.498 83.2399 82.6575 82.9599C82.8171 82.6799 83.0565 82.4799 83.4155 82.3599C83.7745 82.2399 84.2532 82.2 84.8516 82.2C85.45 82.2 85.9287 82.2399 86.2878 82.3599C86.6468 82.4799 86.8861 82.6799 87.0058 82.9599C87.2452 83.3999 87.325 84 87.325 84.72V93.2C87.325 94.36 87.6042 95.4399 88.1627 96.4799C88.442 97 88.8808 97.4399 89.4393 97.7599C89.9978 98.0799 90.6759 98.24 91.4339 98.24C92.7903 98.24 93.8275 97.72 94.5056 96.72C95.1838 95.72 95.503 94.52 95.503 93.2V84.5599C95.6226 83.7999 95.7024 83.28 95.9019 83Z" fill="#401A4F"/>
</g>
<g id="Group_31">
<path id="Vector_44" d="M106.753 82.2L111.939 82.24C114.652 82.24 117.045 83.24 119.12 85.2C121.194 87.16 122.191 89.56 122.191 92.44C122.191 95.32 121.194 97.76 119.159 99.7999C117.165 101.84 114.691 102.88 111.819 102.88H106.673C105.516 102.88 104.838 102.64 104.519 102.16C104.279 101.76 104.2 101.16 104.2 100.36V84.6799C104.2 84.2399 104.2 83.9199 104.24 83.6799C104.279 83.4799 104.359 83.2399 104.519 82.9599C104.838 82.4799 105.556 82.2 106.753 82.2ZM115.609 96.3599C116.686 95.3599 117.245 94.0799 117.245 92.5599C117.245 91.0399 116.726 89.7599 115.649 88.7599C114.572 87.7199 113.335 87.24 111.939 87.24H109.226V97.8799H111.939C113.295 97.8799 114.532 97.3599 115.609 96.3599Z" fill="#401A4F"/>
</g>
<g id="Group_32">
<path id="Vector_45" d="M125.183 84.72C125.183 84.28 125.183 83.96 125.223 83.76C125.263 83.56 125.343 83.28 125.502 83C125.782 82.48 126.5 82.24 127.696 82.24C129.013 82.24 129.771 82.6 130.01 83.28C130.09 83.6 130.17 84.08 130.17 84.76V100.4C130.17 100.84 130.17 101.2 130.13 101.4C130.09 101.6 130.01 101.84 129.851 102.12C129.571 102.64 128.853 102.88 127.656 102.88C126.34 102.88 125.582 102.52 125.343 101.8C125.223 101.48 125.183 101 125.183 100.36V84.72Z" fill="#401A4F"/>
</g>
<g id="Group_33">
<path id="Vector_46" d="M143.295 81.9999C146.087 81.9999 148.481 82.9999 150.515 84.9999C152.55 86.9999 153.587 89.5199 153.587 92.4799C153.587 95.4399 152.63 97.9999 150.675 100.08C148.72 102.16 146.326 103.24 143.494 103.24C140.662 103.24 138.228 102.2 136.234 100.12C134.239 98.0399 133.242 95.5999 133.242 92.7199C133.242 91.1599 133.521 89.7199 134.079 88.3199C134.638 86.9599 135.396 85.7999 136.313 84.8799C137.231 83.9599 138.308 83.2399 139.545 82.7199C140.742 82.2399 141.978 81.9999 143.295 81.9999ZM138.148 92.5999C138.148 94.2799 138.667 95.6399 139.744 96.6799C140.821 97.7199 142.018 98.2399 143.374 98.2399C144.691 98.2399 145.888 97.7199 146.965 96.7199C148.042 95.7199 148.56 94.3599 148.56 92.6399C148.56 90.9199 148.002 89.5599 146.925 88.5199C145.848 87.4799 144.651 86.9599 143.295 86.9599C141.978 86.9599 140.781 87.4799 139.704 88.5199C138.707 89.5599 138.148 90.9199 138.148 92.5999Z" fill="#401A4F"/>
</g>
</g>
<g id="Group_34">
<g id="Group_35">
<path id="Vector_47" d="M45.0391 48.12V34.96H48.9485C53.0176 34.96 55.4909 38.04 55.4909 41.56C55.4909 45.12 53.0176 48.12 48.9485 48.12H45.0391ZM45.6773 47.52H48.9485C52.6586 47.52 54.7729 44.88 54.7729 41.56C54.7729 38.28 52.6586 35.56 48.9485 35.56H45.6773V47.52Z" fill="white"/>
</g>
<g id="Group_36">
<path id="Vector_48" d="M58.0044 48.12V34.96H66.0228V35.56H58.6427V41.08H65.9031V41.68H58.6427V47.56H66.0228V48.16H58.0044V48.12Z" fill="white"/>
</g>
<g id="Group_37">
<path id="Vector_49" d="M68.4561 48.12V34.96H76.4745V35.56H69.0943V41.08H76.3548V41.68H69.0943V47.56H76.4745V48.16H68.4561V48.12Z" fill="white"/>
</g>
<g id="Group_38">
<path id="Vector_50" d="M78.9077 48.12V34.96H83.4555C85.8889 34.96 87.2852 36.68 87.2852 38.68C87.2852 40.68 85.849 42.4 83.4555 42.4H79.546V48.12H78.9077ZM83.4555 35.56H79.546V41.84H83.4555C85.3703 41.84 86.607 40.52 86.607 38.72C86.607 36.88 85.3703 35.56 83.4555 35.56Z" fill="white"/>
</g>
<g id="Group_39">
<path id="Vector_51" d="M88.6416 48.12V47.52L97.059 35.56H88.6416V34.96H97.777V35.56L89.3597 47.52H97.9366V48.12H88.6416Z" fill="white"/>
</g>
<g id="Group_40">
<path id="Vector_52" d="M100.171 48.12V34.96H108.189V35.56H100.809V41.08H108.07V41.68H100.809V47.56H108.189V48.16H100.171V48.12Z" fill="white"/>
</g>
<g id="Group_41">
<path id="Vector_53" d="M120.117 48.12L111.261 36V48.12H110.623V34.96H111.261L120.117 46.96V34.96H120.755V48.12H120.117Z" fill="white"/>
</g>
</g>
<g id="Group_42">
<g id="Group_43">
<path id="Vector_54" d="M46.9535 55.6399L52.1396 55.6799C54.8523 55.6799 57.2458 56.6799 59.3202 58.6399C61.3947 60.5999 62.392 62.9999 62.392 65.8799C62.392 68.7599 61.3947 71.1999 59.3601 73.2399C57.3655 75.2799 54.8922 76.3199 52.0199 76.3199H46.8737C45.7168 76.3199 45.0387 76.0799 44.7195 75.5999C44.4802 75.1999 44.4004 74.5999 44.4004 73.7999V58.1199C44.4004 57.6799 44.4004 57.3599 44.4403 57.1199C44.4802 56.9199 44.56 56.6799 44.7195 56.3999C45.0387 55.9199 45.7567 55.6399 46.9535 55.6399ZM55.8097 69.7999C56.8868 68.7999 57.4453 67.5199 57.4453 65.9999C57.4453 64.4799 56.9267 63.1999 55.8496 62.1999C54.7725 61.1599 53.5358 60.6799 52.1396 60.6799H49.4269V71.3199H52.1396C53.4959 71.3199 54.7326 70.7999 55.8097 69.7999Z" fill="white"/>
</g>
<g id="Group_44">
<path id="Vector_55" d="M78.6284 56.4399C78.8279 56.1199 79.1072 55.9199 79.4263 55.7999C79.7853 55.6799 80.2241 55.6399 80.7428 55.6399C81.2614 55.6399 81.7002 55.6799 82.0193 55.7999C82.3385 55.8799 82.5778 55.9999 82.7374 56.1199C82.897 56.2399 83.0166 56.4399 83.0964 56.7199C83.2161 57.0399 83.256 57.5199 83.256 58.1999V66.7199C83.256 69.1999 82.498 71.4399 80.9422 73.4799C80.1843 74.4399 79.2268 75.1999 78.0301 75.7999C76.8333 76.3999 75.5567 76.6799 74.1206 76.6799C72.6844 76.6799 71.368 76.3599 70.2111 75.7599C69.0542 75.1599 68.0968 74.3599 67.3388 73.3999C65.8229 71.3999 65.0649 69.1599 65.0649 66.6399V58.1599C65.0649 57.7199 65.0649 57.3599 65.1048 57.1599C65.1447 56.9599 65.2245 56.6799 65.3841 56.3999C65.5436 56.1199 65.783 55.9199 66.142 55.7999C66.5011 55.6799 66.9798 55.6399 67.5782 55.6399C68.1766 55.6399 68.6553 55.6799 69.0143 55.7999C69.3733 55.9199 69.6127 56.1199 69.7324 56.3999C69.9717 56.8399 70.0515 57.4399 70.0515 58.1599V66.5999C70.0515 67.7599 70.3308 68.8399 70.8893 69.8799C71.1685 70.3999 71.6073 70.8399 72.1658 71.1599C72.7243 71.4799 73.4025 71.6399 74.1605 71.6399C75.5168 71.6399 76.554 71.1199 77.2322 70.1199C77.9104 69.1199 78.2295 67.9199 78.2295 66.5999V57.9999C78.3492 57.2399 78.4689 56.7599 78.6284 56.4399Z" fill="white"/>
</g>
<g id="Group_45">
<path id="Vector_56" d="M101.687 65.2799C102.804 66.5999 103.362 68.0799 103.362 69.7199C103.322 71.5999 102.684 73.1599 101.447 74.4399C100.21 75.7199 98.6946 76.3599 96.8994 76.3599H89.5192C88.2028 76.3599 87.4448 75.9999 87.2055 75.2799C87.0858 74.9599 87.0459 74.4799 87.0459 73.7999V58.1599C87.0459 57.7199 87.0459 57.3999 87.0858 57.1599C87.1257 56.9599 87.2055 56.7199 87.365 56.4399C87.6443 55.9199 88.3624 55.6799 89.5591 55.6799H96.66C98.3754 55.6799 99.8116 56.2799 100.968 57.4799C102.205 58.7199 102.804 60.1599 102.804 61.8799C102.764 63.0799 102.405 64.2399 101.687 65.2799ZM98.3754 69.3999C98.3754 68.9599 98.3355 68.5999 98.2158 68.3199C98.0962 68.0399 97.9366 67.8799 97.6972 67.7599C97.3382 67.5999 96.7797 67.5199 96.1414 67.5199C95.5031 67.5199 94.9446 67.3999 94.6255 67.1199C94.3064 66.8399 94.1069 66.3199 94.1069 65.4799C94.1069 64.6799 94.2665 64.1199 94.6255 63.8799C94.9845 63.5999 95.543 63.4799 96.3409 63.4799C97.0989 63.4799 97.5377 63.2799 97.6972 62.8799C97.7371 62.6799 97.777 62.3199 97.777 61.8799C97.777 61.3999 97.6175 61.0799 97.2983 60.8799C96.9792 60.6799 96.5404 60.5999 95.9021 60.5999H91.9527V71.2799H96.5802C97.777 71.3199 98.3754 70.6799 98.3754 69.3999Z" fill="white"/>
</g>
<g id="Group_46">
<path id="Vector_57" d="M121.234 65.2799C122.351 66.5999 122.909 68.0799 122.909 69.7199C122.869 71.5999 122.231 73.1599 120.995 74.4399C119.758 75.7199 118.242 76.3599 116.447 76.3599H109.067C107.75 76.3599 106.992 75.9999 106.753 75.2799C106.633 74.9599 106.593 74.4799 106.593 73.7999V58.1599C106.593 57.7199 106.593 57.3999 106.633 57.1599C106.673 56.9599 106.753 56.7199 106.912 56.4399C107.192 55.9199 107.91 55.6799 109.106 55.6799H116.207C117.923 55.6799 119.359 56.2799 120.516 57.4799C121.752 58.7199 122.351 60.1599 122.351 61.8799C122.271 63.0799 121.952 64.2399 121.234 65.2799ZM117.923 69.3999C117.923 68.9599 117.883 68.5999 117.763 68.3199C117.644 68.0399 117.484 67.8799 117.245 67.7599C116.886 67.5999 116.327 67.5199 115.689 67.5199C115.051 67.5199 114.492 67.3999 114.173 67.1199C113.854 66.8399 113.654 66.3199 113.654 65.4799C113.654 64.6799 113.814 64.1199 114.173 63.8799C114.532 63.5999 115.09 63.4799 115.888 63.4799C116.646 63.4799 117.085 63.2799 117.245 62.8799C117.284 62.6799 117.324 62.3199 117.324 61.8799C117.324 61.3999 117.165 61.0799 116.846 60.8799C116.527 60.6799 116.088 60.5999 115.449 60.5999H111.5V71.2799H116.128C117.324 71.3199 117.923 70.6799 117.923 69.3999Z" fill="white"/>
</g>
<g id="Group_47">
<path id="Vector_58" d="M126.061 58.1599C126.061 57.7199 126.061 57.3999 126.101 57.1999C126.141 56.9999 126.221 56.7199 126.38 56.4399C126.659 55.9199 127.377 55.6799 128.574 55.6799C129.891 55.6799 130.649 56.0399 130.888 56.7199C130.968 57.0399 131.048 57.5199 131.048 58.1999V73.8799C131.048 74.3199 131.048 74.6799 131.008 74.8799C130.968 75.0799 130.888 75.3199 130.728 75.5999C130.449 76.1199 129.731 76.3599 128.534 76.3599C127.218 76.3599 126.46 75.9999 126.221 75.2799C126.101 74.9599 126.061 74.4799 126.061 73.8399V58.1599Z" fill="white"/>
</g>
<g id="Group_48">
<path id="Vector_59" d="M148.162 56.5199C148.321 56.1999 148.6 55.9599 148.959 55.8399C149.318 55.7199 149.757 55.6799 150.276 55.6799C150.795 55.6799 151.233 55.7199 151.552 55.8399C151.872 55.9199 152.111 56.0399 152.271 56.1599C152.43 56.2799 152.55 56.4799 152.63 56.7599C152.749 57.0799 152.789 57.5199 152.789 58.1999V73.8399C152.789 74.2799 152.789 74.6399 152.749 74.8399C152.709 75.0399 152.63 75.2799 152.47 75.5599C152.191 76.0799 151.473 76.3199 150.276 76.3199C149.558 76.3199 149.039 76.2799 148.76 76.1599C148.481 76.0399 148.241 75.8799 148.042 75.6399C143.813 69.9999 141.061 66.3199 139.704 64.5999V73.8799C139.704 74.3199 139.704 74.6799 139.664 74.8799C139.625 75.0799 139.545 75.3199 139.385 75.5999C139.106 76.1199 138.388 76.3599 137.191 76.3599C136.034 76.3599 135.316 76.1199 135.037 75.5999C134.877 75.3199 134.798 75.0799 134.758 74.8399C134.718 74.5999 134.718 74.2799 134.718 73.8399V58.1199C134.718 57.3999 134.798 56.8799 134.997 56.5599C135.157 56.2399 135.436 55.9999 135.795 55.8799C136.154 55.7599 136.593 55.7199 137.191 55.7199C137.75 55.7199 138.188 55.7599 138.508 55.8799C138.827 55.9999 139.066 56.1199 139.186 56.2399C139.266 56.2799 139.465 56.5599 139.824 56.9599C143.773 62.3599 146.406 65.9199 147.763 67.6399V58.1199C147.882 57.3999 148.002 56.8799 148.162 56.5199Z" fill="white"/>
</g>
<g id="Group_49">
<path id="Vector_60" d="M167.031 63.8799H171.977C172.975 63.9199 173.613 64.1999 173.812 64.6799C174.012 65.0399 174.092 65.5599 174.092 66.2399V72.4399C174.092 73.0399 173.812 73.5999 173.294 74.1599C171.738 75.7999 169.344 76.5999 166.193 76.5999C163.4 76.5999 160.967 75.5599 158.932 73.4399C156.858 71.3199 155.821 68.7599 155.821 65.7999C155.821 62.7999 156.858 60.3199 158.972 58.3199C161.087 56.3199 163.56 55.3199 166.392 55.3199C168.586 55.3199 170.701 56.0399 172.655 57.5199C173.174 57.8799 173.413 58.3199 173.413 58.7599C173.413 59.1999 173.214 59.7599 172.775 60.3599C172.057 61.3599 171.379 61.8399 170.781 61.8399C170.422 61.8399 169.863 61.5999 169.065 61.0799C168.267 60.5599 167.35 60.3199 166.273 60.3199C164.837 60.3199 163.6 60.8399 162.483 61.8399C161.366 62.8399 160.807 64.1599 160.807 65.7999C160.807 67.4399 161.366 68.7999 162.483 69.9599C163.6 71.0799 164.876 71.6799 166.313 71.6799C167.35 71.6799 168.267 71.5199 169.105 71.1599V68.0799H166.871C166.273 68.0799 165.874 67.9999 165.634 67.8399C165.395 67.6799 165.235 67.4799 165.156 67.1599C165.076 66.8799 165.036 66.4799 165.036 65.9599C165.036 65.4799 165.076 65.0799 165.156 64.7599C165.235 64.4399 165.395 64.2399 165.634 64.1199C166.033 63.9599 166.472 63.8799 167.031 63.8799Z" fill="white"/>
</g>
<g id="Group_50">
<path id="Vector_61" d="M44.7596 98.88C44.2809 98.28 44.0415 97.72 44.0415 97.24C44.0415 96.76 44.4404 96.12 45.2383 95.32C45.717 94.88 46.1957 94.64 46.7143 94.64C47.2329 94.64 47.951 95.12 48.9084 96.04C49.1877 96.36 49.5467 96.68 50.0254 96.96C50.5041 97.24 50.9429 97.4 51.3818 97.4C53.137 97.4 54.0147 96.68 54.0147 95.24C54.0147 94.8 53.7753 94.44 53.2966 94.16C52.8179 93.88 52.2195 93.64 51.5014 93.52C50.7834 93.4 50.0254 93.16 49.1877 92.88C48.3499 92.6 47.592 92.24 46.8739 91.84C46.1558 91.44 45.5574 90.84 45.0787 89.96C44.6 89.12 44.3606 88.08 44.3606 86.88C44.3606 85.24 44.959 83.8 46.1957 82.56C47.4324 81.32 49.1079 80.72 51.2222 80.72C52.3392 80.72 53.3764 80.88 54.2939 81.16C55.2115 81.44 55.8497 81.76 56.2088 82.04L56.9268 82.56C57.5252 83.12 57.8045 83.56 57.8045 83.96C57.8045 84.36 57.5651 84.84 57.1263 85.52C56.488 86.48 55.8497 86.92 55.1716 86.92C54.7726 86.92 54.2939 86.72 53.6955 86.36C53.6556 86.32 53.536 86.24 53.3764 86.08C53.2168 85.92 53.0572 85.8 52.9376 85.72C52.5386 85.48 52.0599 85.36 51.4216 85.36C50.8233 85.36 50.3047 85.52 49.9057 85.8C49.5068 86.08 49.3073 86.48 49.3073 87C49.3073 87.52 49.5467 87.92 50.0254 88.24C50.5041 88.56 51.1025 88.76 51.8206 88.88C52.5386 89 53.2966 89.16 54.1343 89.4C54.9721 89.64 55.7699 89.92 56.4481 90.28C57.1662 90.6 57.7646 91.2 58.2433 92.04C58.722 92.88 58.9614 93.92 58.9614 95.12C58.9614 96.32 58.722 97.4 58.2433 98.36C57.7646 99.28 57.1263 100 56.3284 100.52C54.8125 101.52 53.1769 102 51.4615 102C50.5839 102 49.7462 101.88 48.9483 101.68C48.1504 101.48 47.5122 101.2 47.0335 100.88C46.0361 100.28 45.358 99.68 44.959 99.12L44.7596 98.88Z" fill="white"/>
</g>
<g id="Group_51">
<path id="Vector_62" d="M62.5116 81.12H78.1495C78.7479 81.12 79.1867 81.2 79.466 81.32C79.7452 81.48 79.9447 81.68 80.0245 82C80.1042 82.32 80.184 82.68 80.184 83.2C80.184 83.68 80.1441 84.08 80.0245 84.36C79.9447 84.64 79.7851 84.84 79.5457 84.96C79.2266 85.12 78.7479 85.2 78.1096 85.2H72.7241V99.36C72.7241 99.8 72.7241 100.12 72.6842 100.32C72.6443 100.52 72.5645 100.76 72.4448 101.04C72.2853 101.32 72.0459 101.52 71.6869 101.6C71.3279 101.72 70.8491 101.76 70.2906 101.76C69.6923 101.76 69.2534 101.72 68.8944 101.6C68.5354 101.48 68.296 101.28 68.1763 101.04C68.0168 100.76 67.937 100.52 67.937 100.32C67.8971 100.12 67.8971 99.76 67.8971 99.36V85.2H62.5116C61.9132 85.2 61.4744 85.12 61.1951 85C60.9159 84.84 60.7164 84.64 60.6366 84.32C60.5568 84.04 60.4771 83.64 60.4771 83.12C60.4771 82.6 60.5169 82.24 60.6366 81.96C60.7563 81.68 60.876 81.48 61.1153 81.36C61.4345 81.2 61.9132 81.12 62.5116 81.12Z" fill="white"/>
</g>
<g id="Group_52">
<path id="Vector_63" d="M95.9019 81.88C96.1013 81.56 96.3806 81.36 96.6997 81.24C97.0588 81.12 97.4976 81.08 98.0162 81.08C98.5348 81.08 98.9736 81.12 99.2928 81.24C99.6119 81.32 99.8513 81.44 100.011 81.56C100.17 81.68 100.29 81.88 100.37 82.16C100.49 82.48 100.529 82.96 100.529 83.64V92.16C100.529 94.64 99.7715 96.88 98.2157 98.92C97.4577 99.88 96.5003 100.64 95.3035 101.24C94.1067 101.84 92.8302 102.12 91.394 102.12C89.9579 102.12 88.6414 101.8 87.4845 101.2C86.3276 100.6 85.3702 99.8 84.6123 98.84C83.0963 96.84 82.3384 94.6 82.3384 92.08V83.6C82.3384 83.16 82.3384 82.8 82.3783 82.6C82.4182 82.4 82.498 82.12 82.6575 81.84C82.8171 81.56 83.0565 81.36 83.4155 81.24C83.7745 81.12 84.2532 81.08 84.8516 81.08C85.45 81.08 85.9287 81.12 86.2878 81.24C86.6468 81.36 86.8861 81.56 87.0058 81.84C87.2452 82.28 87.325 82.88 87.325 83.6V92.04C87.325 93.2 87.6042 94.28 88.1627 95.32C88.442 95.84 88.8808 96.28 89.4393 96.6C89.9978 96.92 90.6759 97.08 91.4339 97.08C92.7903 97.08 93.8275 96.56 94.5056 95.56C95.1838 94.56 95.503 93.36 95.503 92.04V83.4C95.6226 82.72 95.7024 82.2 95.9019 81.88Z" fill="white"/>
</g>
<g id="Group_53">
<path id="Vector_64" d="M106.753 81.12L111.939 81.16C114.652 81.16 117.045 82.16 119.12 84.12C121.194 86.08 122.191 88.48 122.191 91.36C122.191 94.24 121.194 96.68 119.159 98.72C117.165 100.76 114.691 101.8 111.819 101.8H106.673C105.516 101.8 104.838 101.56 104.519 101.08C104.279 100.68 104.2 100.08 104.2 99.28V83.6C104.2 83.16 104.2 82.84 104.24 82.6C104.279 82.4 104.359 82.16 104.519 81.88C104.838 81.36 105.556 81.12 106.753 81.12ZM115.609 95.28C116.686 94.28 117.245 93 117.245 91.48C117.245 89.96 116.726 88.68 115.649 87.68C114.572 86.64 113.335 86.16 111.939 86.16H109.226V96.8H111.939C113.295 96.76 114.532 96.28 115.609 95.28Z" fill="white"/>
</g>
<g id="Group_54">
<path id="Vector_65" d="M125.183 83.6C125.183 83.16 125.183 82.84 125.223 82.64C125.263 82.44 125.343 82.16 125.502 81.88C125.782 81.36 126.5 81.12 127.696 81.12C129.013 81.12 129.771 81.48 130.01 82.16C130.09 82.48 130.17 82.96 130.17 83.64V99.32C130.17 99.76 130.17 100.12 130.13 100.32C130.09 100.52 130.01 100.76 129.851 101.04C129.571 101.56 128.853 101.8 127.656 101.8C126.34 101.8 125.582 101.44 125.343 100.72C125.223 100.4 125.183 99.92 125.183 99.28V83.6Z" fill="white"/>
</g>
<g id="Group_55">
<path id="Vector_66" d="M143.295 80.88C146.087 80.88 148.481 81.88 150.515 83.88C152.55 85.88 153.587 88.4 153.587 91.36C153.587 94.32 152.63 96.88 150.675 98.96C148.72 101.04 146.326 102.12 143.494 102.12C140.662 102.12 138.228 101.08 136.234 99C134.239 96.92 133.242 94.48 133.242 91.6C133.242 90.04 133.521 88.6 134.079 87.2C134.638 85.84 135.396 84.68 136.313 83.76C137.231 82.84 138.308 82.12 139.545 81.6C140.742 81.12 141.978 80.88 143.295 80.88ZM138.148 91.52C138.148 93.2 138.667 94.56 139.744 95.6C140.821 96.64 142.018 97.16 143.374 97.16C144.691 97.16 145.888 96.64 146.965 95.64C148.042 94.64 148.56 93.28 148.56 91.56C148.56 89.84 148.002 88.48 146.925 87.44C145.848 86.4 144.651 85.88 143.295 85.88C141.978 85.88 140.781 86.4 139.704 87.44C138.707 88.48 138.148 89.84 138.148 91.52Z" fill="white"/>
</g>
</g>
</g>
</g>
</g>
</svg>
